<svg xmlns="http://www.w3.org/2000/svg" width="14.008" height="14" viewBox="0 0 14.008 14">
  <path id="area" d="M12.118,10.22l-.773.773.6.6H9.334l3.573-3.573V9.462L14,10.556V1.529A1.531,1.531,0,0,0,12.471,0H3.417L4.511,1.093h1.5l-3.6,3.6V2.085l.6.6L3.78,1.91,1.89.02,0,1.91l.773.773.543-.543v9.015a1.531,1.531,0,0,0,1.529,1.529h9.042l-.543.543.773.773,1.89-1.89ZM7.787,11.591H6.258l6.649-6.648V6.471ZM2.41,9.275l8.181-8.181h1.543L2.41,10.817Zm10.5-7.408V3.4L4.712,11.591H3.183Zm-5.35-.773H9.045L2.41,7.728V6.24Zm0,0" transform="translate(0 0)" fill="#212121"/>
</svg>
