<svg xmlns="http://www.w3.org/2000/svg" width="14.15" height="10.613" viewBox="0 0 14.15 10.613">
  <path id="Exclusion_2" data-name="Exclusion 2" d="M-1462.638-2789.387h-3.985a1.187,1.187,0,0,1-.833-.345l-.833-.833h-.468a.885.885,0,0,1-.884-.885v-.885h-.59v.885a.886.886,0,0,1-.885.885.886.886,0,0,1-.885-.885v-3.538a.885.885,0,0,1,.885-.884.885.885,0,0,1,.885.884v.885h.59v-.885a.885.885,0,0,1,.884-.884h.468l.833-.834a1.186,1.186,0,0,1,.833-.345h1.108v-1.18h-.885a.884.884,0,0,1-.883-.884.885.885,0,0,1,.883-.885h3.538a.886.886,0,0,1,.886.885.886.886,0,0,1-.886.884h-.885v1.18h1.7a1.188,1.188,0,0,1,.835.345l.66.661a1.187,1.187,0,0,1,.346.833v1.108h.59v-.885a.885.885,0,0,1,.884-.884.885.885,0,0,1,.884.884v3.538a.885.885,0,0,1-.884.885.885.885,0,0,1-.884-.885v-.885h-.59v.518a1.183,1.183,0,0,1-.346.833l-1.25,1.251A1.187,1.187,0,0,1-1462.638-2789.387Zm-1.654-6.437a2.68,2.68,0,0,0-1.907.79,2.678,2.678,0,0,0-.789,1.907,2.68,2.68,0,0,0,.789,1.907,2.68,2.68,0,0,0,1.907.79,2.68,2.68,0,0,0,1.907-.79,2.68,2.68,0,0,0,.79-1.907,2.679,2.679,0,0,0-.79-1.907A2.68,2.68,0,0,0-1464.292-2795.824Zm0,4.72a2.025,2.025,0,0,1-2.022-2.022,2.009,2.009,0,0,1,.374-1.172l2.82,2.82A2.008,2.008,0,0,1-1464.292-2791.1Zm1.649-.852h0l-2.819-2.818a2.01,2.01,0,0,1,1.171-.374,2.025,2.025,0,0,1,2.023,2.022,2,2,0,0,1-.374,1.17Z" transform="translate(1472 2800)" fill="#282377"/>
</svg>
