<svg id="bus-side-view" xmlns="http://www.w3.org/2000/svg" width="19.547" height="10.986" viewBox="0 0 19.547 10.986">
  <g id="Group_575" data-name="Group 575" transform="translate(0 0)">
    <path id="Path_8404" data-name="Path 8404" d="M46.949,208.593a1.816,1.816,0,1,1-1.816,1.816A1.816,1.816,0,0,1,46.949,208.593Zm0,2.605a.789.789,0,1,0-.79-.789A.789.789,0,0,0,46.949,211.2Z" transform="translate(-31.736 -201.239)"/>
    <path id="Path_8405" data-name="Path 8405" d="M238.109,208.593a1.816,1.816,0,1,1-1.816,1.816A1.816,1.816,0,0,1,238.109,208.593Zm0,2.605a.789.789,0,1,0-.79-.789A.789.789,0,0,0,238.109,211.2Z" transform="translate(-233.558 -201.239)"/>
    <path id="Path_8406" data-name="Path 8406" d="M1.085,76.741H17.376a1.39,1.39,0,0,1,1.3,1.063l.651,2.377a12.973,12.973,0,0,1,.217,2.149v2.5a1.088,1.088,0,0,1-1.085,1.085H17.355a2.142,2.142,0,0,0-4.284,0H6.693a2.142,2.142,0,0,0-4.284,0H1.085A1.088,1.088,0,0,1,0,84.826v-7A1.088,1.088,0,0,1,1.085,76.741ZM15.037,81.32h2.529l-.4-.949a.326.326,0,1,1,.6-.253l.5,1.177a.647.647,0,0,0,.471-.775l-.583-2.328a1.02,1.02,0,0,0-.962-.8h-2.15V81.32Zm-4.829,0h4.178V77.391H10.208Zm-4.829,0H9.557V77.391H5.378ZM.665,80.506a.816.816,0,0,0,.814.814H4.727V77.391H1.479a.816.816,0,0,0-.814.814Z" transform="translate(0 -76.741)"/>
  </g>
</svg>
