<svg xmlns="http://www.w3.org/2000/svg" width="23.5" height="23.5" viewBox="0 0 23.5 23.5">
  <g id="city-white" transform="translate(0 0)">
    <path id="Path_8423" data-name="Path 8423" d="M21.751,22.123V14.778H13.84v7.345H12.463V13.4h4.644V5.548H15.559V2.471H13.808V0H12.431V2.471H10.679V5.548H9.131V22.123H7.754V8.625H1.749v13.5H0V23.5H23.5V22.123ZM13.969,7.248h1.377V8.625H13.969Zm0,3.077h1.377V11.7H13.969ZM5.41,21.583H4.033V20.206H5.41Zm0-3.294H4.033V16.912H5.41ZM5.41,15H4.033V13.618H5.41Zm0-3.294H4.033V10.324H5.41Zm6.86,0H10.893V10.324h1.377Zm0-3.077H10.893V7.248h1.377Zm.161-4.454h1.377V5.548H12.431Zm4.506,17.952H15.559V16.6h1.377Zm3.1,0H18.655V16.6h1.377Z" fill="#fff"/>
  </g>
</svg>
