<svg xmlns="http://www.w3.org/2000/svg" width="26.541" height="26.541" viewBox="0 0 26.541 26.541">
  <path id="Icon_awesome-clone" data-name="Icon awesome-clone" d="M24.053,0a2.488,2.488,0,0,1,2.488,2.488V17.418a2.488,2.488,0,0,1-2.488,2.488H9.123a2.488,2.488,0,0,1-2.488-2.488V2.488A2.488,2.488,0,0,1,9.123,0H24.053M9.123,21.565a4.152,4.152,0,0,1-4.147-4.147V6.635H2.488A2.488,2.488,0,0,0,0,9.123V24.053a2.488,2.488,0,0,0,2.488,2.488H17.418a2.488,2.488,0,0,0,2.488-2.488V21.565Z" fill="#f1f1f2"/>
</svg>
