<svg xmlns="http://www.w3.org/2000/svg" width="12.333" height="12.333" viewBox="0 0 12.333 12.333">
  <g id="filter" transform="translate(0 0)">
    <path id="Path_8420" data-name="Path 8420" d="M10.118,0h-7.9A2.218,2.218,0,0,0,0,2.215v7.9a2.218,2.218,0,0,0,2.215,2.215h7.9a2.218,2.218,0,0,0,2.215-2.215v-7.9A2.218,2.218,0,0,0,10.118,0Zm.3,9.625H6.47a1.138,1.138,0,0,1-2.155,0H1.91a.363.363,0,0,1,0-.726H4.315a1.138,1.138,0,0,1,2.155,0h3.953A.363.363,0,0,1,10.423,9.625Zm0-3.1H9.566a1.138,1.138,0,0,1-2.155,0H1.91a.363.363,0,0,1,0-.726h5.5a1.138,1.138,0,0,1,2.155,0h.857A.363.363,0,0,1,10.423,6.529Zm0-3.1h-5.5a1.138,1.138,0,0,1-2.155,0H1.91a.363.363,0,0,1,0-.726h.857a1.138,1.138,0,0,1,2.155,0h5.5a.363.363,0,0,1,0,.726Z" fill="#282377"/>
    <path id="Path_8421" data-name="Path 8421" d="M207.352,367.435a.411.411,0,0,0,0,.822A.411.411,0,0,0,207.352,367.435Z" transform="translate(-201.959 -358.584)" fill="#282377"/>
    <path id="Path_8422" data-name="Path 8422" d="M143.1,110.431a.411.411,0,0,0,0,.822A.411.411,0,0,0,143.1,110.431Z" transform="translate(-139.255 -107.771)" fill="#282377"/>
    <path id="Path_8423" data-name="Path 8423" d="M335.853,238.933a.411.411,0,0,0,0,.822A.411.411,0,0,0,335.853,238.933Z" transform="translate(-327.364 -233.177)" fill="#282377"/>
  </g>
</svg>
