<svg xmlns="http://www.w3.org/2000/svg" width="17.25" height="23" viewBox="0 0 17.25 23">
  <path id="csv" d="M10.062,6.109V0H1.078A1.076,1.076,0,0,0,0,1.078V21.922A1.076,1.076,0,0,0,1.078,23H16.172a1.076,1.076,0,0,0,1.078-1.078V7.187H11.141A1.081,1.081,0,0,1,10.062,6.109ZM5.75,12.578a.359.359,0,0,1-.359.359H5.031a.719.719,0,0,0-.719.719v1.437a.719.719,0,0,0,.719.719h.359a.359.359,0,0,1,.359.359v.719a.359.359,0,0,1-.359.359H5.031a2.156,2.156,0,0,1-2.156-2.156V13.656A2.156,2.156,0,0,1,5.031,11.5h.359a.359.359,0,0,1,.359.359ZM7.739,17.25H7.187a.359.359,0,0,1-.359-.359v-.719a.359.359,0,0,1,.359-.359h.551c.267,0,.468-.157.468-.3a.238.238,0,0,0-.1-.172L7.128,14.5a1.667,1.667,0,0,1-.6-1.264A1.828,1.828,0,0,1,8.434,11.5h.55a.359.359,0,0,1,.359.359v.719a.359.359,0,0,1-.359.359H8.433c-.267,0-.468.157-.468.3a.238.238,0,0,0,.1.172l.983.843a1.667,1.667,0,0,1,.6,1.264,1.827,1.827,0,0,1-1.9,1.735ZM11.5,11.859v.934a4.9,4.9,0,0,0,.719,2.555,4.9,4.9,0,0,0,.719-2.555v-.934A.359.359,0,0,1,13.3,11.5h.719a.359.359,0,0,1,.359.359v.934a6.179,6.179,0,0,1-1.63,4.227.719.719,0,0,1-1.053,0,6.179,6.179,0,0,1-1.63-4.227v-.934a.359.359,0,0,1,.359-.359h.719A.359.359,0,0,1,11.5,11.859Zm5.436-7.143-4.4-4.4A1.077,1.077,0,0,0,11.774,0H11.5V5.75h5.75V5.476A1.075,1.075,0,0,0,16.935,4.717Z" fill="#5dff82"/>
</svg>
