<svg xmlns="http://www.w3.org/2000/svg" width="12" height="12" viewBox="0 0 12 12">
  <path id="Icon_material-gps-fixed" data-name="Icon material-gps-fixed" d="M7.5,5.318A2.182,2.182,0,1,0,9.682,7.5,2.181,2.181,0,0,0,7.5,5.318Zm4.876,1.636A4.906,4.906,0,0,0,8.045,2.624V1.5H6.955V2.624A4.906,4.906,0,0,0,2.624,6.955H1.5V8.045H2.624a4.906,4.906,0,0,0,4.331,4.331V13.5H8.045V12.376a4.906,4.906,0,0,0,4.331-4.331H13.5V6.955ZM7.5,11.318A3.818,3.818,0,1,1,11.318,7.5,3.815,3.815,0,0,1,7.5,11.318Z" transform="translate(-1.5 -1.5)" fill="#282377"/>
</svg>
