<svg xmlns="http://www.w3.org/2000/svg" width="12.65" height="12.7" viewBox="0 0 12.65 12.7">
  <g id="cloud-data" transform="translate(-1)">
    <path id="Path_8399" data-name="Path 8399" d="M11.691,3.6q-.071,0-.141.005A2.556,2.556,0,0,0,9.017,1.812a3.533,3.533,0,0,0-6.5.813,2.555,2.555,0,0,0-.128,4.608V6.3A1.117,1.117,0,0,1,3.505,5.184h7.64A1.117,1.117,0,0,1,12.261,6.3V7.43a1.959,1.959,0,0,0-.57-3.834Z" transform="translate(0 0)" fill="#282377"/>
    <path id="Path_8400" data-name="Path 8400" d="M95.012,239h-7.64a.372.372,0,0,0-.372.372V242h8.384v-2.628A.372.372,0,0,0,95.012,239Zm-4.822,1.91H88.215a.372.372,0,0,1,0-.744H90.19a.372.372,0,1,1,0,.744Zm2.391,0a.372.372,0,1,1,.372-.372A.372.372,0,0,1,92.581,240.906Zm1.587,0a.372.372,0,1,1,.372-.372A.372.372,0,0,1,94.168,240.906Z" transform="translate(-83.867 -233.072)" fill="#282377"/>
    <path id="Path_8401" data-name="Path 8401" d="M87,392.6a.372.372,0,0,0,.372.372h7.64a.372.372,0,0,0,.372-.372v-2.655H87Zm7.168-1.612a.372.372,0,1,1-.372.372A.372.372,0,0,1,94.168,390.987Zm-1.587,0a.372.372,0,1,1-.372.372A.372.372,0,0,1,92.581,390.987Zm-4.366,0H90.19a.372.372,0,0,1,0,.744H88.215a.372.372,0,0,1,0-.744Z" transform="translate(-83.867 -380.272)" fill="#282377"/>
  </g>
</svg>
