<svg xmlns="http://www.w3.org/2000/svg" width="34.765" height="21.031" viewBox="0 0 34.765 21.031">
  <g id="travelling-vehicles-of-a-road" transform="translate(9)">
    <g id="Group_232" data-name="Group 232" transform="translate(-9 0)">
      <path id="Path_8133" data-name="Path 8133" d="M168.755,104.7c-1.067-.533-5.224-.575-6.473-.575-1.6,0-3.183.057-4.586.165h-.01a2.589,2.589,0,0,0-1.648.692l-.033.035-1.609,1.817V94.391H176.9v2.794h.238v11.406l-5.169-1.325A22.988,22.988,0,0,0,168.755,104.7Z" transform="translate(-153.608 -94.391)" fill="#525253"/>
      <path id="Path_8134" data-name="Path 8134" d="M0,143.421v-10.9H6.364l3.975,5.137v3.228l.6.623v1.909H7.794a2.914,2.914,0,0,1,.058.312h2.622l-.029,1.139H7.777a2.925,2.925,0,0,1-5.652,0H.713l-.261-.731-.432-.111v-.3H2.051a2.9,2.9,0,0,1,.058-.312H0Zm4.952,2.1a1.4,1.4,0,1,0-1.4-1.4A1.4,1.4,0,0,0,4.952,145.517Zm3.54-8.051-2.668-3.723H1.193v3.723Z" transform="translate(23.829 -129.75)" fill="#525253"/>
      <path id="Path_8135" data-name="Path 8135" d="M139.584,251.089V248.5l.591-1.854,2.766-3.122a1.56,1.56,0,0,1,.958-.364c4.41-.34,9.695-.1,10.487.3a28.266,28.266,0,0,1,3.171,2.577l5.62,1.44.525,1.466.491.43-.336,1.78h-.4v.6h-2.01a2.266,2.266,0,0,1-4.378-.6h-11.54a2.266,2.266,0,0,1-4.378.6H139.94v-.6h-.355c0-.016,0-.032,0-.049Zm19.745.694a.836.836,0,1,0-.837-.837A.837.837,0,0,0,159.329,251.784Zm-9.747-5.622h5.567l-1.579-1.974s-2.566-.215-3.988-.237v2.211Zm-1.431,0v-2.211a28.738,28.738,0,0,0-3.9.165l-1.668,2.046h5.567Zm-4.875,5.622a.836.836,0,1,0-.837-.837A.837.837,0,0,0,143.276,251.784Z" transform="translate(-139.584 -232.182)" fill="#525253"/>
    </g>
  </g>
</svg>
