<svg id="steering-wheel" xmlns="http://www.w3.org/2000/svg" width="11.917" height="11.917" viewBox="0 0 11.917 11.917">
  <circle id="Ellipse_435" data-name="Ellipse 435" cx="0.292" cy="0.292" r="0.292" transform="translate(5.713 5.713)" fill="#282377"/>
  <path id="Path_8136" data-name="Path 8136" d="M5.958,0a5.958,5.958,0,1,0,5.958,5.958A5.971,5.971,0,0,0,5.958,0Zm0,1.42a4.546,4.546,0,0,1,4.485,3.84H9.232a2.745,2.745,0,0,1-2-.845,1.747,1.747,0,0,0-2.546,0,2.744,2.744,0,0,1-2,.845H1.473A4.546,4.546,0,0,1,5.958,1.42Zm0,5.935A1.047,1.047,0,1,1,7.006,6.307,1.049,1.049,0,0,1,5.958,7.355Zm-4.226.258a2.756,2.756,0,0,1,1.084-.258A2.1,2.1,0,0,1,4.887,9.763h0a2.088,2.088,0,0,1-.165.562A4.559,4.559,0,0,1,1.732,7.613ZM7.2,10.325a2.082,2.082,0,0,1-.166-.562h0A2.1,2.1,0,0,1,9.6,7.414a5.1,5.1,0,0,1,.587.2A4.559,4.559,0,0,1,7.2,10.325Z" fill="#282377"/>
</svg>
