<svg xmlns="http://www.w3.org/2000/svg" width="17.316" height="22.031" viewBox="0 0 17.316 22.031">
  <g id="driver-active" transform="translate(-10 -4.026)">
    <path id="Path_11053" data-name="Path 11053" d="M24,54a3.155,3.155,0,0,0,.433,1.574h2.322V54.235L24.276,52.7A3.479,3.479,0,0,0,24,54Z" transform="translate(-8.49 -29.517)" fill="#fff"/>
    <path id="Path_11054" data-name="Path 11054" d="M33,54.174v1.338h2.322A3.056,3.056,0,0,0,35.44,52.6Z" transform="translate(-13.948 -29.457)" fill="#fff"/>
    <path id="Path_11055" data-name="Path 11055" d="M28.24,48a3.2,3.2,0,0,0-2.44,1.141l2.44,1.535,2.44-1.535A3.2,3.2,0,0,0,28.24,48Z" transform="translate(-9.581 -26.667)" fill="#fff"/>
    <path id="Path_11056" data-name="Path 11056" d="M24.189,32.79a3.367,3.367,0,0,1-.866-.59l-1.023.433.866,2.007,1.968-1.5a1.855,1.855,0,0,1-.59-.236Z" transform="translate(-7.459 -17.086)" fill="#fff"/>
    <path id="Path_11057" data-name="Path 11057" d="M30.436,40.9,30.2,42.986a4.28,4.28,0,0,1,1.417,0L31.381,40.9A1,1,0,0,1,30.436,40.9Z" transform="translate(-12.25 -22.362)" fill="#fff"/>
    <path id="Path_11058" data-name="Path 11058" d="M30.484,35.2l-.984.748.708.708a.38.38,0,0,0,.551,0l.708-.708Z" transform="translate(-11.825 -18.905)" fill="#fff"/>
    <path id="Path_11059" data-name="Path 11059" d="M35.445,32.851l-.354.157-.59.236,1.968,1.5.866-2.007L36.31,32.3a8.3,8.3,0,0,1-.865.551Z" transform="translate(-14.857 -17.147)" fill="#fff"/>
    <path id="Path_11060" data-name="Path 11060" d="M29.659,19.929V19.3a.521.521,0,0,0-.512-.512h-.118l-.157.039V18l-.905.708a2.007,2.007,0,0,1-1.22.433h-3.11a1.846,1.846,0,0,1-1.378-.59l-.472-.394v.669l-.157-.039a.53.53,0,0,0-.63.394v.748a.6.6,0,0,0,.276.472l.512.276a3.515,3.515,0,0,0,1.929,2.834l.354.157a2.751,2.751,0,0,0,2.48,0l.354-.157a3.515,3.515,0,0,0,1.929-2.834l.512-.276a.555.555,0,0,0,.313-.472Z" transform="translate(-6.671 -8.475)" fill="#fff"/>
    <path id="Path_11061" data-name="Path 11061" d="M19.22,8.187l.315.118.118-.079a7.531,7.531,0,0,1,7.714,0l.157.079a1.951,1.951,0,0,0,1.5-1.929V6.337a1.134,1.134,0,0,0-.827-1.1l-2.44-.827a6.75,6.75,0,0,0-4.487,0L18.83,5.2A1.181,1.181,0,0,0,18,6.337,2.017,2.017,0,0,0,19.22,8.187Z" transform="translate(-4.851)" fill="#fff"/>
    <path id="Path_11062" data-name="Path 11062" d="M25.274,15.952h3.109a1.1,1.1,0,0,0,.748-.276l1.1-.866a6.661,6.661,0,0,0-6.533.039l.748.748a1.072,1.072,0,0,0,.827.354Z" transform="translate(-8.308 -6.033)" fill="#fff"/>
    <path id="Path_11063" data-name="Path 11063" d="M17.124,39.1l.315-2.912-.394-.394-1.692,1.259L14.093,34.1l-1.968.866A3.522,3.522,0,0,0,10,38.193v6.1h3.149V40.358h.787v3.936h1.141a3.893,3.893,0,0,1,2.007-5.156A.039.039,0,0,1,17.124,39.1Z" transform="translate(0 -18.238)" fill="#fff"/>
    <path id="Path_11064" data-name="Path 11064" d="M40.413,34.966,38.445,34.1l-1.259,2.952-1.692-1.259-.394.394.315,2.912a3.909,3.909,0,0,1,2.125,5.117c0,.039-.039.039-.039.079h1.1V40.358h.787v3.936h3.149v-6.1a3.522,3.522,0,0,0-2.124-3.228Z" transform="translate(-15.221 -18.238)" fill="#fff"/>
  </g>
</svg>
