<svg id="steering-wheel" xmlns="http://www.w3.org/2000/svg" width="20.417" height="20.417" viewBox="0 0 20.417 20.417">
  <circle id="Ellipse_435" data-name="Ellipse 435" cx="0.5" cy="0.5" r="0.5" transform="translate(9.788 9.788)" fill="#fff"/>
  <path id="Path_8136" data-name="Path 8136" d="M10.208,0A10.208,10.208,0,1,0,20.417,10.208,10.23,10.23,0,0,0,10.208,0Zm0,2.432a7.788,7.788,0,0,1,7.684,6.58H15.818a4.7,4.7,0,0,1-3.428-1.448,2.993,2.993,0,0,0-4.362,0A4.7,4.7,0,0,1,4.6,9.012H2.524a7.788,7.788,0,0,1,7.684-6.58Zm0,10.168A1.794,1.794,0,1,1,12,10.806,1.8,1.8,0,0,1,10.208,12.6Zm-7.241.443A4.723,4.723,0,0,1,4.825,12.6a3.592,3.592,0,0,1,3.548,4.127h0a3.577,3.577,0,0,1-.283.963A7.812,7.812,0,0,1,2.968,13.043Zm9.361,4.647a3.567,3.567,0,0,1-.284-.963h0a3.593,3.593,0,0,1,4.4-4.025,8.738,8.738,0,0,1,1.005.341A7.812,7.812,0,0,1,12.328,17.69Z" fill="#fff"/>
</svg>
