<svg xmlns="http://www.w3.org/2000/svg" width="12.448" height="12.441" viewBox="0 0 12.448 12.441">
  <path id="geofences" d="M10.768,9.082l-.687.687.531.531H8.294l3.175-3.175V8.409l.972.972V1.359A1.36,1.36,0,0,0,11.082,0H3.037l.972.972H5.341l-3.2,3.2V1.853l.531.531L3.359,1.7,1.68.017,0,1.7l.687.687L1.17,1.9V9.913a1.36,1.36,0,0,0,1.359,1.359h8.035l-.482.482.687.687,1.68-1.68ZM6.92,10.3H5.561l5.908-5.908V5.75ZM2.141,8.242,9.412.972h1.371L2.141,9.613Zm9.328-6.583V3.018L4.187,10.3H2.828ZM6.715.972H8.037l-5.9,5.9V5.545Zm0,0" transform="translate(0)" fill="#282377"/>
</svg>
