<svg xmlns="http://www.w3.org/2000/svg" width="14.877" height="9" viewBox="0 0 14.877 9">
  <g id="device" transform="translate(9)">
    <g id="Group_232" data-name="Group 232" transform="translate(-9 0)">
      <path id="Path_8133" data-name="Path 8133" d="M160.54,98.8a11.048,11.048,0,0,0-2.77-.246c-.684,0-1.362.024-1.963.071h0a1.108,1.108,0,0,0-.705.3l-.014.015-.689.778V94.391h9.632v1.2h.1v4.881l-2.212-.567A9.838,9.838,0,0,0,160.54,98.8Z" transform="translate(-154.058 -94.391)" fill="#282377"/>
      <path id="Path_8134" data-name="Path 8134" d="M0,137.187v-4.663H2.724l1.7,2.2V136.1l.255.267v.817H3.335a1.248,1.248,0,0,1,.025.134H4.482l-.013.487H3.328a1.252,1.252,0,0,1-2.419,0h-.6L.193,137.5l-.185-.047v-.127H.878a1.24,1.24,0,0,1,.025-.134H0Zm2.119.9a.6.6,0,1,0-.6-.6A.6.6,0,0,0,2.119,138.084Zm1.515-3.445-1.142-1.593H.51v1.593Z" transform="translate(10.198 -131.337)" fill="#282377"/>
      <path id="Path_8135" data-name="Path 8135" d="M139.584,246.458v-1.11l.253-.793,1.184-1.336a.668.668,0,0,1,.41-.156,17.561,17.561,0,0,1,4.488.127,12.1,12.1,0,0,1,1.357,1.1l2.4.616.225.628.21.184-.144.762h-.17v.256h-.86a.97.97,0,0,1-1.874-.256h-4.938a.97.97,0,0,1-1.874.256h-.519v-.256h-.152c0-.007,0-.014,0-.021Zm8.45.3a.358.358,0,1,0-.358-.358A.358.358,0,0,0,148.034,246.755Zm-4.171-2.406h2.382l-.676-.845s-1.1-.092-1.707-.1v.946Zm-.612,0V243.4a12.3,12.3,0,0,0-1.669.071l-.714.875h2.382Zm-2.086,2.406a.358.358,0,1,0-.358-.358A.358.358,0,0,0,141.164,246.755Z" transform="translate(-139.584 -238.367)" fill="#282377"/>
    </g>
  </g>
</svg>
