<svg id="driver" xmlns="http://www.w3.org/2000/svg" width="12.448" height="12.448" viewBox="0 0 12.448 12.448">
  <circle id="Ellipse_435" data-name="Ellipse 435" cx="0.305" cy="0.305" r="0.305" transform="translate(5.968 5.968)" fill="#282377"/>
  <path id="Path_8136" data-name="Path 8136" d="M6.224,0a6.224,6.224,0,1,0,6.224,6.224A6.237,6.237,0,0,0,6.224,0Zm0,1.483a4.748,4.748,0,0,1,4.685,4.011H9.644a2.867,2.867,0,0,1-2.09-.883,1.825,1.825,0,0,0-2.66,0,2.867,2.867,0,0,1-2.09.883H1.539A4.748,4.748,0,0,1,6.224,1.483Zm0,6.2A1.094,1.094,0,1,1,7.318,6.589,1.1,1.1,0,0,1,6.224,7.683Zm-4.415.27a2.879,2.879,0,0,1,1.132-.27A2.19,2.19,0,0,1,5.105,10.2h0a2.181,2.181,0,0,1-.173.587A4.763,4.763,0,0,1,1.809,7.952Zm5.707,2.833a2.175,2.175,0,0,1-.173-.587h0a2.191,2.191,0,0,1,2.683-2.454,5.328,5.328,0,0,1,.613.208A4.763,4.763,0,0,1,7.517,10.786Z" fill="#282377"/>
</svg>
