<svg xmlns="http://www.w3.org/2000/svg" width="14.877" height="9.467" viewBox="0 0 14.877 9.467">
  <path id="user-group" d="M11.644,11.557A2.029,2.029,0,1,0,9.615,9.529,2.02,2.02,0,0,0,11.644,11.557Zm-5.41,0A2.029,2.029,0,1,0,4.2,9.529,2.02,2.02,0,0,0,6.234,11.557Zm0,1.352c-1.576,0-4.734.791-4.734,2.367v1.691h9.467V15.277C10.967,13.7,7.809,12.91,6.234,12.91Zm5.41,0c-.2,0-.419.014-.656.034a2.854,2.854,0,0,1,1.332,2.333v1.691h4.057V15.277C16.377,13.7,13.219,12.91,11.644,12.91Z" transform="translate(-1.5 -7.5)" fill="#282377"/>
</svg>
