<svg id="city" xmlns="http://www.w3.org/2000/svg" width="14.992" height="14.992" viewBox="0 0 14.992 14.992">
  <path id="Path_11027" data-name="Path 11027" d="M13.876,14.113V9.428H8.829v4.686H7.951V8.549h2.963V3.539H9.926V1.577H8.809V0H7.93V1.577H6.813V3.539H5.825V14.113H4.947V5.5H1.116v8.611H0v.878H14.992v-.878ZM8.912,4.624H9.79V5.5H8.912Zm0,1.963H9.79v.878H8.912ZM3.451,13.769H2.573V12.89h.878Zm0-2.1H2.573v-.878h.878Zm0-2.1H2.573V8.688h.878Zm0-2.1H2.573V6.586h.878Zm4.376,0H6.949V6.586h.878Zm0-1.963H6.949V4.624h.878Zm.1-2.841h.878v.878H7.93ZM10.8,14.113H9.926V10.588H10.8Zm1.975,0H11.9V10.588h.878Z" fill="#282377"/>
</svg>
