<svg xmlns="http://www.w3.org/2000/svg" width="12.448" height="15.569" viewBox="0 0 12.448 15.569">
  <g id="notification" transform="translate(-6.761 -3.93)">
    <path id="Path_8402" data-name="Path 8402" d="M16.479,30.4a1.834,1.834,0,0,0,1.872-2.062H14.6A1.835,1.835,0,0,0,16.479,30.4Z" transform="translate(-3.503 -10.899)" fill="#282377"/>
    <path id="Path_8403" data-name="Path 8403" d="M19.051,15.46c-.6-.79-1.778-1.253-1.778-4.79,0-3.63-1.6-5.09-3.1-5.44-.14-.035-.241-.082-.241-.23V4.888a.949.949,0,1,0-1.9,0V5c0,.144-.1.195-.241.23-1.5.354-3.1,1.809-3.1,5.44,0,3.537-1.179,4-1.778,4.79A.772.772,0,0,0,7.537,16.7h10.9A.773.773,0,0,0,19.051,15.46Z" transform="translate(0 0)" fill="#282377"/>
  </g>
</svg>
