<svg xmlns="http://www.w3.org/2000/svg" width="11.748" height="11.748" viewBox="0 0 11.748 11.748">
  <path id="route" d="M9.545,7.342h-2.2a.734.734,0,0,1,0-1.468h2.2s2.2-2.455,2.2-3.671a2.2,2.2,0,0,0-4.405,0,4.84,4.84,0,0,0,1.039,2.2H7.342a2.2,2.2,0,0,0,0,4.405h2.2a.734.734,0,0,1,0,1.468H4.256a15.841,15.841,0,0,1-1.085,1.468H9.545a2.2,2.2,0,0,0,0-4.405Zm0-5.874a.734.734,0,1,1-.734.734A.733.733,0,0,1,9.545,1.468ZM2.2,5.874A2.2,2.2,0,0,0,0,8.076c0,1.216,2.2,3.671,2.2,3.671s2.2-2.455,2.2-3.671A2.2,2.2,0,0,0,2.2,5.874Zm0,2.937a.734.734,0,1,1,.734-.734A.733.733,0,0,1,2.2,8.811Z" fill="#FFFFFF"/>
</svg>
