<svg xmlns="http://www.w3.org/2000/svg" width="13.698" height="17.132" viewBox="0 0 13.698 17.132">
  <g id="Icon_ionic-ios-notifications" data-name="Icon ionic-ios-notifications" transform="translate(-6.761 -3.93)">
    <path id="Path_8402" data-name="Path 8402" d="M16.668,30.605a2.019,2.019,0,0,0,2.06-2.269H14.6A2.019,2.019,0,0,0,16.668,30.605Z" transform="translate(-3.067 -9.543)" fill="#fff"/>
    <path id="Path_8403" data-name="Path 8403" d="M20.285,16.618c-.659-.869-1.957-1.379-1.957-5.271,0-4-1.764-5.6-3.408-5.986-.154-.039-.265-.09-.265-.253V4.984a1.045,1.045,0,1,0-2.09,0v.124c0,.158-.111.214-.265.253-1.649.39-3.408,1.991-3.408,5.986,0,3.892-1.3,4.4-1.957,5.271a.85.85,0,0,0,.681,1.362H19.609A.85.85,0,0,0,20.285,16.618Z" fill="#fff"/>
  </g>
</svg>
