<svg xmlns="http://www.w3.org/2000/svg" width="17.25" height="23" viewBox="0 0 17.25 23">
  <g id="Group_739" data-name="Group 739" transform="translate(0 0)">
    <path id="Exclusion_2" data-name="Exclusion 2" d="M16.172,23H1.078A1.079,1.079,0,0,1,0,21.922V1.078A1.079,1.079,0,0,1,1.078,0h8.985V6.109a1.08,1.08,0,0,0,1.078,1.079H17.25V21.922A1.079,1.079,0,0,1,16.172,23ZM8.965,9.913a.3.3,0,0,0-.169.054.265.265,0,0,0-.117.185l-1.246,7.5a.292.292,0,0,0,.05.217.261.261,0,0,0,.185.117l.568.091a.323.323,0,0,0,.05,0,.289.289,0,0,0,.167-.054.261.261,0,0,0,.117-.185l1.246-7.5a.294.294,0,0,0-.049-.217.263.263,0,0,0-.185-.117l-.569-.091A.31.31,0,0,0,8.965,9.913ZM11,10.994a.3.3,0,0,0-.18.061l-.46.343a.264.264,0,0,0-.113.189.3.3,0,0,0,.058.217L11.948,14,10.3,16.192a.3.3,0,0,0-.058.217.264.264,0,0,0,.113.189l.46.344A.3.3,0,0,0,11,17l.038,0a.264.264,0,0,0,.189-.113l2.04-2.717a.265.265,0,0,0,0-.343l-2.04-2.718A.264.264,0,0,0,11.036,11l-.037,0Zm-4.747,0-.037,0a.264.264,0,0,0-.189.113L3.984,13.827a.264.264,0,0,0,0,.343l2.041,2.717A.264.264,0,0,0,6.215,17l.037,0a.3.3,0,0,0,.18-.061l.46-.343A.265.265,0,0,0,7,16.409a.3.3,0,0,0-.059-.217L5.3,14,6.946,11.8A.3.3,0,0,0,7,11.588a.265.265,0,0,0-.113-.189l-.46-.343A.3.3,0,0,0,6.252,10.994Zm11-5.244H11.5V0h.274a1.069,1.069,0,0,1,.763.315l4.4,4.4a1.081,1.081,0,0,1,.314.759v.273Z" transform="translate(0 0)" fill="#ca9cfe"/>
  </g>
</svg>
