<svg xmlns="http://www.w3.org/2000/svg" width="17.25" height="22.999" viewBox="0 0 17.25 22.999">
  <path id="Exclusion_3" data-name="Exclusion 3" d="M-6585.829,23h-15.093A1.079,1.079,0,0,1-6602,21.922V1.079A1.08,1.08,0,0,1-6600.921,0h8.984V6.109a1.08,1.08,0,0,0,1.079,1.079h6.109V21.922A1.079,1.079,0,0,1-6585.829,23Zm-9.285-7.935h4.4a.368.368,0,0,1,.368.368V18h1.1a.367.367,0,0,0,.366-.368V12.258a.362.362,0,0,0-.073-.22l-1.475-1.963a.363.363,0,0,0-.293-.147h-.6v3.059a.366.366,0,0,1-.366.366h-3.426a.368.368,0,0,1-.368-.366V9.926h-1.1a.367.367,0,0,0-.366.368v7.338a.367.367,0,0,0,.366.368h1.1V15.432A.368.368,0,0,1-6595.114,15.064Zm.368,2.2V18h3.67v-.732Zm0-1.468v.734h3.67V15.8Zm0-5.872v2.691h2.691V9.926Zm10-4.177h-5.75V0h.273a1.073,1.073,0,0,1,.764.315l4.4,4.4a1.081,1.081,0,0,1,.315.759v.272Z" transform="translate(6602)" fill="#f49cfe"/>
</svg>
