<svg xmlns="http://www.w3.org/2000/svg" width="17.25" height="23" viewBox="0 0 17.25 23">
  <g id="Group_738" data-name="Group 738" transform="translate(0 0)">
    <path id="Exclusion_1" data-name="Exclusion 1" d="M16.172,23H1.078A1.079,1.079,0,0,1,0,21.922V1.078A1.079,1.079,0,0,1,1.078,0h8.985V6.109a1.08,1.08,0,0,0,1.078,1.079H17.25V21.922A1.079,1.079,0,0,1,16.172,23ZM9.635,15.664h0l-.973.561a2.266,2.266,0,0,0,2.176,1.22c1.2,0,1.977-.652,1.977-1.661s-.582-1.448-1.586-1.878l-.3-.127c-.5-.218-.735-.361-.735-.726a.519.519,0,0,1,.57-.511.814.814,0,0,1,.769.511l.93-.6a1.755,1.755,0,0,0-1.7-.956,1.6,1.6,0,0,0-1.747,1.577,1.892,1.892,0,0,0,1.432,1.8l.3.127c.543.239.871.384.871.794,0,.353-.326.59-.812.59a1.3,1.3,0,0,1-1.177-.726Zm-4.226.1h0l-.973.587a1.852,1.852,0,0,0,1.792,1.091,1.616,1.616,0,0,0,1.783-1.8V11.568H6.818v4.058c0,.534-.186.752-.64.752-.425,0-.6-.312-.769-.613ZM17.25,5.75H11.5V0h.274a1.069,1.069,0,0,1,.763.315l4.4,4.4a1.081,1.081,0,0,1,.314.759v.273Z" transform="translate(0 0)" fill="#9ca9fe"/>
  </g>
</svg>
