<svg xmlns="http://www.w3.org/2000/svg" width="17.25" height="23" viewBox="0 0 17.25 23">
  <path id="Icon_awesome-file-excel" data-name="Icon awesome-file-excel" d="M10.062,6.109V0H1.078A1.076,1.076,0,0,0,0,1.078V21.922A1.076,1.076,0,0,0,1.078,23H16.172a1.076,1.076,0,0,0,1.078-1.078V7.187H11.141A1.081,1.081,0,0,1,10.062,6.109Zm2.7,4.784-2.7,4.2,2.7,4.2a.54.54,0,0,1-.454.831H10.741a.541.541,0,0,1-.476-.283c-.88-1.626-1.64-3.086-1.64-3.086-.287.665-.449.9-1.644,3.091a.534.534,0,0,1-.472.283H4.941a.54.54,0,0,1-.454-.831L7.2,15.1,4.488,10.9a.538.538,0,0,1,.454-.831H6.5a.541.541,0,0,1,.476.283c1.172,2.192.9,1.509,1.644,3.077,0,0,.274-.526,1.644-3.077a.541.541,0,0,1,.476-.283h1.563A.536.536,0,0,1,12.762,10.894ZM17.25,5.476V5.75H11.5V0h.274a1.077,1.077,0,0,1,.764.314l4.4,4.4A1.075,1.075,0,0,1,17.25,5.476Z" fill="#fed79c"/>
</svg>
