<svg xmlns="http://www.w3.org/2000/svg" width="23.044" height="23.031" viewBox="0 0 23.044 23.031">
  <path id="area" d="M19.934,16.812l-1.272,1.272.983.983H15.354l5.878-5.878v2.377l1.8,1.8V2.515A2.518,2.518,0,0,0,20.516,0H5.621l1.8,1.8H9.887L3.964,7.722V3.431l.983.983L6.219,3.142,3.11.032,0,3.142,1.272,4.414l.893-.893v14.83A2.518,2.518,0,0,0,4.68,20.866H19.556l-.893.893,1.272,1.272,3.109-3.109ZM12.81,19.067H10.295L21.232,8.13v2.515Zm-8.846-3.81L17.423,1.8H19.96l-16,16ZM21.232,3.071V5.586L7.751,19.067H5.236ZM12.431,1.8h2.448L3.964,12.714V10.266Zm0,0" transform="translate(0 0)" fill="#fff"/>
</svg>
