<svg xmlns="http://www.w3.org/2000/svg" width="18.993" height="18.993" viewBox="0 0 18.993 18.993">
  <path id="Icon_awesome-question-circle" data-name="Icon awesome-question-circle" d="M19.555,10.059a9.5,9.5,0,1,1-9.5-9.5A9.5,9.5,0,0,1,19.555,10.059ZM10.314,3.7A4.96,4.96,0,0,0,5.851,6.144a.46.46,0,0,0,.1.623L7.284,7.774a.459.459,0,0,0,.638-.081c.684-.868,1.153-1.371,2.194-1.371.782,0,1.75.5,1.75,1.262,0,.573-.473.868-1.246,1.3-.9.5-2.093,1.133-2.093,2.706v.153a.46.46,0,0,0,.46.46h2.144a.46.46,0,0,0,.46-.46v-.051c0-1.09,3.185-1.135,3.185-4.085C14.776,5.387,12.472,3.7,10.314,3.7Zm-.255,9.5A1.761,1.761,0,1,0,11.82,14.96,1.763,1.763,0,0,0,10.059,13.2Z" transform="translate(-0.563 -0.563)" fill="#212121"/>
</svg>
