<svg xmlns="http://www.w3.org/2000/svg" width="13.192" height="13.192" viewBox="0 0 13.192 13.192">
  <path id="Icon_awesome-history" data-name="Icon awesome-history" d="M13.754,7.146A6.6,6.6,0,0,1,3.019,12.294a.638.638,0,0,1-.049-.947l.3-.3a.639.639,0,0,1,.848-.053,4.894,4.894,0,1,0-.312-7.4l1.35,1.35a.426.426,0,0,1-.3.726H.988a.426.426,0,0,1-.426-.426V1.377a.426.426,0,0,1,.726-.3L2.6,2.389A6.6,6.6,0,0,1,13.754,7.146Zm-4.812,2.1L9.2,8.905a.638.638,0,0,0-.112-.9L8.009,7.168V4.392a.638.638,0,0,0-.638-.638H6.946a.638.638,0,0,0-.638.638V8l1.74,1.353A.638.638,0,0,0,8.943,9.241Z" transform="translate(-0.563 -0.563)" fill="#282377"/>
</svg>
