<svg xmlns="http://www.w3.org/2000/svg" width="12.438" height="12.438" viewBox="0 0 12.438 12.438">
  <path id="Icon_awesome-info-circle" data-name="Icon awesome-info-circle" d="M6.781.563A6.219,6.219,0,1,0,13,6.781,6.22,6.22,0,0,0,6.781.563Zm0,2.758A1.053,1.053,0,1,1,5.728,4.374,1.053,1.053,0,0,1,6.781,3.321Zm1.4,6.369a.3.3,0,0,1-.3.3H5.678a.3.3,0,0,1-.3-.3v-.6a.3.3,0,0,1,.3-.3h.3v-1.6h-.3a.3.3,0,0,1-.3-.3v-.6a.3.3,0,0,1,.3-.3h1.6a.3.3,0,0,1,.3.3V8.787h.3a.3.3,0,0,1,.3.3Z" transform="translate(-0.563 -0.563)" fill="#adaccb"/>
</svg>
