<svg xmlns="http://www.w3.org/2000/svg" width="17.87" height="20.849" viewBox="0 0 17.87 20.849">
  <path id="Icon_metro-language" data-name="Icon metro-language" d="M12.379,14.745q-.012.035-.145-.006t-.366-.134l-.233-.1a6.971,6.971,0,0,1-1.012-.57q-.081-.058-.477-.366T9.7,13.233a19.821,19.821,0,0,1-1.559,2.106,8.649,8.649,0,0,1-1.222,1.28.922.922,0,0,1-.227.047.448.448,0,0,1-.215,0q.07-.047.954-1.07.244-.279.995-1.338a16.266,16.266,0,0,0,.913-1.373q.2-.349.593-1.146a9.069,9.069,0,0,0,.419-.9,9.56,9.56,0,0,0-1.28.384q-.093.023-.32.087t-.4.111a1.993,1.993,0,0,0-.2.058.2.2,0,0,0-.023.122.258.258,0,0,1-.012.111q-.058.116-.361.175a.938.938,0,0,1-.547,0,.491.491,0,0,1-.326-.244.592.592,0,0,1-.058-.268,2.248,2.248,0,0,1,.285-.058,3.474,3.474,0,0,0,.343-.07q.675-.186,1.222-.372,1.163-.407,1.187-.407a2.581,2.581,0,0,0,.5-.227,5.262,5.262,0,0,1,.512-.25q.1-.035.25-.093T11.3,9.83a.156.156,0,0,1,.07.006,1.324,1.324,0,0,1-.012.384,2.477,2.477,0,0,1-.145.314q-.145.291-.308.622t-.2.39a17.449,17.449,0,0,1-.9,1.524l.745.326q.14.07.867.372l.785.326q.047.012.122.3a.881.881,0,0,1,.052.355ZM9.994,9.091a.472.472,0,0,1-.047.326,1.055,1.055,0,0,1-.582.442,1.868,1.868,0,0,1-.7.14.963.963,0,0,1-.57-.3.875.875,0,0,1-.209-.477L7.9,9.184a.5.5,0,0,0,.227.058,1.012,1.012,0,0,0,.308,0q.116-.023.675-.186a3.322,3.322,0,0,1,.64-.163.23.23,0,0,1,.244.2Zm8.121,1.5.733,2.641-1.617-.489ZM5.224,19.9,13.3,17.2V5.194L5.224,7.9v12Zm14.438-3.688,1.187.361L18.743,8.928l-1.163-.361L15.066,14.8l1.187.361.524-1.28,2.455.756ZM13.81,5.019,20.476,7.16V2.739Zm3.618,15.392,1.838.151-.628,1.862-.465-.768a8.625,8.625,0,0,1-3.211,1.257,5.576,5.576,0,0,1-1.059.14h-.977A7.863,7.863,0,0,1,10.6,22.6,7.726,7.726,0,0,1,8.47,21.61a.242.242,0,0,1-.093-.186.225.225,0,0,1,.058-.157.2.2,0,0,1,.151-.064.655.655,0,0,1,.209.087l.355.192q.192.1.238.128a10.308,10.308,0,0,0,1.856.716,6.779,6.779,0,0,0,1.832.285,9.928,9.928,0,0,0,1.943-.169,9.589,9.589,0,0,0,1.827-.588q.175-.081.355-.18t.4-.221q.215-.122.332-.192ZM22.64,7.858V20.411l-9.005-2.862q-.163.07-4.363,1.483T4.991,20.446a.21.21,0,0,1-.209-.151.089.089,0,0,0-.012-.035V7.718A.519.519,0,0,1,4.816,7.6a.523.523,0,0,1,.233-.128q1.233-.407,1.734-.582V2.425l6.492,2.3q.023,0,1.867-.64t3.676-1.262Q20.651,2.2,20.7,2.2q.233,0,.233.244V7.311Z" transform="translate(-4.77 -2.203)" fill="#212121"/>
</svg>
