<svg xmlns="http://www.w3.org/2000/svg" width="13.712" height="13.715" viewBox="0 0 13.712 13.715">
  <path id="Icon_ionic-ios-settings" data-name="Icon ionic-ios-settings" d="M17.08,11.356A1.764,1.764,0,0,1,18.212,9.71a6.994,6.994,0,0,0-.846-2.039,1.788,1.788,0,0,1-.718.154,1.761,1.761,0,0,1-1.61-2.478A6.973,6.973,0,0,0,13,4.5a1.763,1.763,0,0,1-3.292,0,6.994,6.994,0,0,0-2.039.846A1.761,1.761,0,0,1,6.06,7.824a1.73,1.73,0,0,1-.718-.154A7.148,7.148,0,0,0,4.5,9.713a1.764,1.764,0,0,1,0,3.292,6.994,6.994,0,0,0,.846,2.039,1.761,1.761,0,0,1,2.325,2.325,7.035,7.035,0,0,0,2.039.846,1.76,1.76,0,0,1,3.285,0,6.994,6.994,0,0,0,2.039-.846,1.763,1.763,0,0,1,2.325-2.325,7.035,7.035,0,0,0,.846-2.039A1.773,1.773,0,0,1,17.08,11.356Zm-5.692,2.853a2.857,2.857,0,1,1,2.857-2.857A2.856,2.856,0,0,1,11.388,14.209Z" transform="translate(-4.5 -4.5)" fill="#525253"/>
</svg>
