<svg xmlns="http://www.w3.org/2000/svg" width="23.031" height="23.031" viewBox="0 0 23.031 23.031">
  <path id="Icon_material-gps-fixed" data-name="Icon material-gps-fixed" d="M13.016,8.828A4.187,4.187,0,1,0,17.2,13.016,4.186,4.186,0,0,0,13.016,8.828Zm9.359,3.141a9.416,9.416,0,0,0-8.312-8.312V1.5H11.969V3.657a9.416,9.416,0,0,0-8.312,8.312H1.5v2.094H3.657a9.416,9.416,0,0,0,8.312,8.312v2.157h2.094V22.374a9.416,9.416,0,0,0,8.312-8.312h2.157V11.969Zm-9.359,8.375a7.328,7.328,0,1,1,7.328-7.328A7.323,7.323,0,0,1,13.016,20.344Z" transform="translate(-1.5 -1.5)" fill="#fff"/>
</svg>
