<svg xmlns="http://www.w3.org/2000/svg" width="17.273" height="23.031" viewBox="0 0 17.273 23.031">
  <path id="Icon_awesome-traffic-light" data-name="Icon awesome-traffic-light" d="M17.273,8.637H14.394v-1.7a4.305,4.305,0,0,0,2.879-4.054H14.394V1.439A1.44,1.44,0,0,0,12.955,0H4.318A1.44,1.44,0,0,0,2.879,1.439V2.879H0A4.305,4.305,0,0,0,2.879,6.933v1.7H0A4.305,4.305,0,0,0,2.879,12.69v1.7H0a4.3,4.3,0,0,0,3.013,4.1,5.752,5.752,0,0,0,11.247,0,4.3,4.3,0,0,0,3.013-4.1H14.394v-1.7A4.305,4.305,0,0,0,17.273,8.637ZM8.637,18.713A2.159,2.159,0,1,1,10.8,16.554,2.159,2.159,0,0,1,8.637,18.713Zm0-5.758A2.159,2.159,0,1,1,10.8,10.8,2.159,2.159,0,0,1,8.637,12.955Zm0-5.758A2.159,2.159,0,1,1,10.8,5.038,2.159,2.159,0,0,1,8.637,7.2Z" fill="#fff"/>
</svg>
