<svg xmlns="http://www.w3.org/2000/svg" width="23.285" height="24.614" viewBox="0 0 23.285 24.614">
  <g id="Group_617" data-name="Group 617" transform="translate(-1112 -660.75)">
    <g id="Group_232" data-name="Group 232" transform="translate(1112 671.277)">
      <path id="Path_8133" data-name="Path 8133" d="M164.013,101.3a17.29,17.29,0,0,0-4.336-.385c-1.07,0-2.132.038-3.072.111H156.6a1.734,1.734,0,0,0-1.1.463l-.022.024-1.078,1.217V94.391H169.47v1.871h.159v7.64l-3.462-.887A15.4,15.4,0,0,0,164.013,101.3Z" transform="translate(-153.868 -94.391)" fill="#fff"/>
      <path id="Path_8134" data-name="Path 8134" d="M0,139.823v-7.3H4.263l2.662,3.441v2.162l.4.417v1.279H5.22a1.951,1.951,0,0,1,.039.209H7.015l-.02.763H5.209a1.959,1.959,0,0,1-3.785,0H.478L.3,140.305l-.289-.074v-.2h1.36a1.941,1.941,0,0,1,.039-.209H0Zm3.317,1.4a.939.939,0,1,0-.94-.939A.941.941,0,0,0,3.317,141.226Zm2.371-5.392L3.9,133.341H.8v2.493Z" transform="translate(15.961 -130.666)" fill="#fff"/>
      <path id="Path_8135" data-name="Path 8135" d="M139.584,248.416v-1.737l.4-1.242,1.852-2.091a1.045,1.045,0,0,1,.641-.244,27.486,27.486,0,0,1,7.024.2,18.932,18.932,0,0,1,2.124,1.726l3.764.965.351.982.329.288-.225,1.192h-.267v.4h-1.346a1.518,1.518,0,0,1-2.933-.4h-7.729a1.518,1.518,0,0,1-2.933.4h-.813v-.4h-.237c0-.011,0-.022,0-.033Zm13.225.465a.56.56,0,1,0-.56-.561A.561.561,0,0,0,152.809,248.881Zm-6.528-3.765h3.729l-1.058-1.322s-1.718-.144-2.671-.159v1.481Zm-.959,0v-1.481a19.248,19.248,0,0,0-2.611.111l-1.117,1.37h3.729Zm-3.265,3.765a.56.56,0,1,0-.56-.561A.561.561,0,0,0,142.057,248.881Z" transform="translate(-139.584 -235.753)" fill="#fff"/>
    </g>
    <path id="Icon_awesome-route" data-name="Icon awesome-route" d="M7.058,11.516A7.059,7.059,0,0,0,0,18.573c0,3.9,7.058,11.763,7.058,11.763s7.058-7.866,7.058-11.763A7.059,7.059,0,0,0,7.058,11.516Zm0,9.41A2.353,2.353,0,1,1,9.41,18.573,2.35,2.35,0,0,1,7.058,20.926Z" transform="translate(1117.063 649.234)" fill="#282377"/>
    <path id="Icon_awesome-route-2" data-name="Icon awesome-route" d="M6.12,11.516A6.122,6.122,0,0,0,0,17.636c0,3.379,6.12,10.2,6.12,10.2s6.12-6.821,6.12-10.2A6.122,6.122,0,0,0,6.12,11.516Zm0,8.16a2.04,2.04,0,1,1,2.04-2.04A2.038,2.038,0,0,1,6.12,19.676Z" transform="translate(1118 650.484)" fill="#fff"/>
  </g>
</svg>
