<svg xmlns="http://www.w3.org/2000/svg" width="12.225" height="10.187" viewBox="0 0 12.225 10.187">
  <path id="Icon_material-perm-media" data-name="Icon material-perm-media" d="M1.019,5.037H0V7.584H.005L0,12.169a1.022,1.022,0,0,0,1.019,1.019h9.169V12.169H1.019ZM11.206,4.019H7.131L6.112,3H3.056A1.017,1.017,0,0,0,2.043,4.019l-.005,6.112A1.022,1.022,0,0,0,3.056,11.15h8.15a1.022,1.022,0,0,0,1.019-1.019V5.037A1.022,1.022,0,0,0,11.206,4.019Zm-7.641,5.6L5.858,6.566l1.783,2.3L8.914,7.33,10.7,9.622Z" transform="translate(0 -3)" fill="#282377"/>
</svg>
