<svg xmlns="http://www.w3.org/2000/svg" width="16.39" height="20.499" viewBox="0 0 16.39 20.499">
  <g id="Icon_ionic-ios-notifications-active" data-name="Icon ionic-ios-notifications-active" transform="translate(-6.761 -3.93)">
    <path id="Path_8402" data-name="Path 8402" d="M17.073,31.051a2.415,2.415,0,0,0,2.464-2.715H14.6A2.416,2.416,0,0,0,17.073,31.051Z" transform="translate(-2.128 -6.622)" fill="#e5c213"/>
    <path id="Path_8403" data-name="Path 8403" d="M22.943,19.111c-.789-1.04-2.341-1.65-2.341-6.307,0-4.78-2.111-6.7-4.078-7.163-.184-.046-.318-.108-.318-.3V5.191a1.25,1.25,0,1,0-2.5,0v.149c0,.19-.133.256-.318.3C11.415,6.108,9.31,8.024,9.31,12.8c0,4.657-1.552,5.262-2.341,6.307a1.017,1.017,0,0,0,.815,1.629H22.134A1.017,1.017,0,0,0,22.943,19.111Z" transform="translate(0 0)" fill="#e5c213"/>
  </g>
</svg>
