<svg id="Icon_ionic-ios-print" data-name="Icon ionic-ios-print" xmlns="http://www.w3.org/2000/svg" width="18" height="18" viewBox="0 0 18 18">
  <path id="Path_8144" data-name="Path 8144" d="M9,17v8.654a.694.694,0,0,0,.692.692h9.692a.694.694,0,0,0,.692-.692V17a.694.694,0,0,0-.692-.692H9.692A.694.694,0,0,0,9,17Z" transform="translate(-5.538 -8.351)" fill="#fff"/>
  <g id="Group_245" data-name="Group 245">
    <path id="Path_8145" data-name="Path 8145" d="M19.644,3.375H8.567a.694.694,0,0,0-.692.692v.865a.174.174,0,0,0,.173.173H20.163a.174.174,0,0,0,.173-.173V4.067A.694.694,0,0,0,19.644,3.375Z" transform="translate(-5.106 -3.375)" fill="#fff"/>
    <path id="Path_8146" data-name="Path 8146" d="M20.012,7.875H4.781A1.385,1.385,0,0,0,3.375,9.229v7.546a1.421,1.421,0,0,0,1.406,1.4h.671a.347.347,0,0,0,.346-.346V13.24A1.21,1.21,0,0,1,7.01,12.029H17.74a1.21,1.21,0,0,1,1.212,1.212v4.587a.347.347,0,0,0,.346.346h.714a1.384,1.384,0,0,0,1.363-1.4V9.229A1.347,1.347,0,0,0,20.012,7.875Z" transform="translate(-3.375 -5.106)" fill="#fff"/>
  </g>
</svg>
