<svg xmlns="http://www.w3.org/2000/svg" width="17.393" height="23.186" viewBox="0 0 17.393 23.186">
  <g id="report_grey" transform="translate(-64)">
    <g id="Group_881" data-name="Group 881" transform="translate(75.593)">
      <g id="Group_880" data-name="Group 880">
        <path id="Path_11021" data-name="Path 11021" d="M320,0V5.8h5.8Z" transform="translate(-320)" fill="#525253"/>
      </g>
    </g>
    <g id="Group_883" data-name="Group 883" transform="translate(64)">
      <g id="Group_882" data-name="Group 882">
        <path id="Path_11022" data-name="Path 11022" d="M75.593,7.246A1.452,1.452,0,0,1,74.144,5.8V0H65.449A1.452,1.452,0,0,0,64,1.449V21.737a1.451,1.451,0,0,0,1.449,1.449H79.941a1.45,1.45,0,0,0,1.449-1.449V7.246ZM69.8,20.288H66.9V15.941h2.9Zm4.347,0h-2.9V13.042h2.9Zm4.347,0h-2.9V10.144h2.9Z" transform="translate(-64)" fill="#525253"/>
      </g>
    </g>
  </g>
</svg>
