<svg xmlns="http://www.w3.org/2000/svg" width="23.035" height="23.037" viewBox="0 0 23.035 23.037">
  <path id="report_grey" d="M18.713,14.394H14.394a1.44,1.44,0,1,1,0-2.879h4.318S23.03,6.7,23.03,4.315a4.318,4.318,0,1,0-8.637,0c0,1.147,1,2.852,2.038,4.318H14.394a4.319,4.319,0,1,0,0,8.638h4.318a1.439,1.439,0,1,1,0,2.879H8.344a31.056,31.056,0,0,1-2.128,2.879h12.5a4.319,4.319,0,1,0,0-8.637Zm0-11.516a1.439,1.439,0,1,1-1.439,1.439A1.439,1.439,0,0,1,18.713,2.878ZM4.318,11.516A4.319,4.319,0,0,0,0,15.832c0,2.386,4.318,7.2,4.318,7.2s4.318-4.813,4.318-7.2A4.319,4.319,0,0,0,4.32,11.515Zm0,5.758a1.439,1.439,0,1,1,1.439-1.439A1.439,1.439,0,0,1,4.318,17.274Z" transform="translate(0 0.004)" fill="#525253"/>
</svg>
