<svg xmlns="http://www.w3.org/2000/svg" width="23.031" height="23.031" viewBox="0 0 23.031 23.031">
  <path id="Icon_awesome-route-active" data-name="Icon awesome-route-active" d="M18.713,14.394H14.394a1.439,1.439,0,0,1,0-2.879h4.318s4.318-4.813,4.318-7.2a4.318,4.318,0,1,0-8.637,0c0,1.147,1,2.852,2.038,4.318H14.394a4.318,4.318,0,1,0,0,8.637h4.318a1.439,1.439,0,0,1,0,2.879H8.344a31.056,31.056,0,0,1-2.128,2.879h12.5a4.318,4.318,0,0,0,0-8.637Zm0-11.516a1.439,1.439,0,1,1-1.439,1.439A1.438,1.438,0,0,1,18.713,2.879ZM4.318,11.516A4.319,4.319,0,0,0,0,15.834c0,2.384,4.318,7.2,4.318,7.2s4.318-4.813,4.318-7.2A4.319,4.319,0,0,0,4.318,11.516Zm0,5.758a1.439,1.439,0,1,1,1.439-1.439A1.438,1.438,0,0,1,4.318,17.273Z" fill="#e5c213"/>
</svg>
