<svg id="save-file" xmlns="http://www.w3.org/2000/svg" width="20" height="20" viewBox="0 0 20 20">
  <g id="Group_742" data-name="Group 742" transform="translate(6.683 14.939)">
    <g id="Group_741" data-name="Group 741">
      <rect id="Rectangle_1574" data-name="Rectangle 1574" width="6.633" height="1.327" fill="#fff"/>
    </g>
  </g>
  <g id="Group_744" data-name="Group 744" transform="translate(6.683 18.673)">
    <g id="Group_743" data-name="Group 743">
      <path id="Path_8414" data-name="Path 8414" d="M139.636,465.455v1.327h6.633v-1.327Z" transform="translate(-139.636 -465.455)" fill="#fff"/>
    </g>
  </g>
  <g id="Group_746" data-name="Group 746">
    <g id="Group_745" data-name="Group 745">
      <path id="Path_8415" data-name="Path 8415" d="M19.818,5.228,16.165.363A.909.909,0,0,0,15.438,0h-1.5V7.576a.909.909,0,0,1-.909.909H4.545a.909.909,0,0,1-.909-.909V0H.909A.909.909,0,0,0,0,.909V19.091A.909.909,0,0,0,.909,20H3.636V13.636a.909.909,0,0,1,.909-.909H15.455a.909.909,0,0,1,.909.909V20h2.727A.909.909,0,0,0,20,19.091V5.774A.909.909,0,0,0,19.818,5.228Z" fill="#fff"/>
    </g>
  </g>
  <g id="Group_748" data-name="Group 748" transform="translate(6.192)">
    <g id="Group_747" data-name="Group 747">
      <path id="Path_8416" data-name="Path 8416" d="M139.636,0V4.864H144.5V0Z" transform="translate(-139.636)" fill="#fff"/>
    </g>
  </g>
</svg>
