<svg id="save-file" xmlns="http://www.w3.org/2000/svg" width="34" height="34" viewBox="0 0 34 34">
  <g id="Group_742" data-name="Group 742" transform="translate(11.361 25.396)">
    <g id="Group_741" data-name="Group 741">
      <rect id="Rectangle_1574" data-name="Rectangle 1574" width="11.276" height="2.256" fill="#00aeef"/>
    </g>
  </g>
  <g id="Group_744" data-name="Group 744" transform="translate(11.361 31.744)">
    <g id="Group_743" data-name="Group 743">
      <path id="Path_8414" data-name="Path 8414" d="M139.636,465.455v2.256h11.276v-2.256Z" transform="translate(-139.636 -465.455)" fill="#00aeef"/>
    </g>
  </g>
  <g id="Group_746" data-name="Group 746" transform="translate(0 0)">
    <g id="Group_745" data-name="Group 745">
      <path id="Path_8415" data-name="Path 8415" d="M33.691,8.888,27.481.617A1.545,1.545,0,0,0,26.245,0h-2.55V12.879a1.545,1.545,0,0,1-1.545,1.545H7.727a1.545,1.545,0,0,1-1.545-1.545V0H1.545A1.545,1.545,0,0,0,0,1.545V32.455A1.545,1.545,0,0,0,1.545,34H6.181V23.181a1.545,1.545,0,0,1,1.545-1.545H26.274a1.545,1.545,0,0,1,1.545,1.545V34h4.636A1.545,1.545,0,0,0,34,32.455V9.816a1.545,1.545,0,0,0-.309-.928Z" transform="translate(0 0)" fill="#00aeef"/>
    </g>
  </g>
  <g id="Group_748" data-name="Group 748" transform="translate(10.526 0)">
    <g id="Group_747" data-name="Group 747">
      <path id="Path_8416" data-name="Path 8416" d="M139.636,0V8.269H147.9V0Z" transform="translate(-139.636)" fill="#00aeef"/>
    </g>
  </g>
</svg>
