<svg xmlns="http://www.w3.org/2000/svg" width="14.256" height="10.325" viewBox="0 0 14.256 10.325">
  <g id="sensor" transform="translate(0 -70.588)">
    <path id="Path_8413" data-name="Path 8413" d="M412.173,70.71a.418.418,0,0,0-.591.591,6.3,6.3,0,0,1,0,8.9.418.418,0,0,0,.591.591,7.131,7.131,0,0,0,0-10.08Z" transform="translate(-400.003 0)" fill="#282377"/>
    <path id="Path_8414" data-name="Path 8414" d="M366.752,116.13a.418.418,0,1,0-.591.591,4.506,4.506,0,0,1,0,6.37.418.418,0,1,0,.591.591,5.342,5.342,0,0,0,0-7.551Z" transform="translate(-355.848 -44.155)" fill="#282377"/>
    <path id="Path_8415" data-name="Path 8415" d="M321.3,161.582a.418.418,0,1,0-.591.591,2.716,2.716,0,0,1,0,3.839.418.418,0,1,0,.591.591,3.551,3.551,0,0,0,0-5.02Z" transform="translate(-311.66 -88.342)" fill="#282377"/>
    <path id="Path_8416" data-name="Path 8416" d="M.835,75.75A6.251,6.251,0,0,1,2.677,71.3a.418.418,0,1,0-.591-.591,7.131,7.131,0,0,0,0,10.08.418.418,0,1,0,.591-.591A6.251,6.251,0,0,1,.835,75.75Z" transform="translate(0 0)" fill="#282377"/>
    <path id="Path_8417" data-name="Path 8417" d="M65.054,119.9a4.474,4.474,0,0,1,1.318-3.185.418.418,0,0,0-.591-.591,5.342,5.342,0,0,0,0,7.551.418.418,0,1,0,.591-.591A4.474,4.474,0,0,1,65.054,119.9Z" transform="translate(-62.431 -44.155)" fill="#282377"/>
    <path id="Path_8418" data-name="Path 8418" d="M130.118,161.582a.418.418,0,0,0-.591,0,3.551,3.551,0,0,0,0,5.02.418.418,0,0,0,.591-.591,2.716,2.716,0,0,1,0-3.839A.418.418,0,0,0,130.118,161.582Z" transform="translate(-124.91 -88.342)" fill="#282377"/>
    <path id="Path_8419" data-name="Path 8419" d="M194.56,192.8a1.76,1.76,0,1,0,1.76,1.76A1.762,1.762,0,0,0,194.56,192.8Z" transform="translate(-187.432 -118.81)" fill="#282377"/>
  </g>
</svg>
