<svg xmlns="http://www.w3.org/2000/svg" width="21" height="22.751" viewBox="0 0 21 22.751">
  <g id="sensor-yellow" transform="translate(-894.483 368.839) rotate(180)">
    <path id="Path_8424" data-name="Path 8424" d="M-870.377,346.088c.029.019.057.04.088.056a.672.672,0,0,1,.385.748.667.667,0,0,1-.679.527c-.8,0-1.6,0-2.4,0h-2.088c-.043,0-.086,0-.139.007v1.325h5.852a2,2,0,0,1,2.135,2.143q0,1.255,0,2.509a2,2,0,0,1-2.089,2.1q-6.575,0-13.15,0a2,2,0,0,1-2.089-2.1q0-1.266,0-2.532a2,2,0,0,1,2.112-2.121h5.872v-1.333h-.226q-2.188,0-4.376,0a.675.675,0,0,1-.7-.527.674.674,0,0,1,.406-.757.61.61,0,0,0,.068-.048Zm-7.51,6.044a.673.673,0,0,0-.658-.668.673.673,0,0,0-.674.652.673.673,0,0,0,.669.679A.673.673,0,0,0-877.887,352.132Zm2.009.663a.673.673,0,0,0,.657-.669.673.673,0,0,0-.663-.662.673.673,0,0,0-.668.68A.674.674,0,0,0-875.878,352.8Zm2.648,0a.673.673,0,0,0,.674-.651.674.674,0,0,0-.646-.68.673.673,0,0,0-.685.662A.674.674,0,0,0-873.229,352.8Z" transform="translate(-29.097)" fill="#e5c213"/>
    <path id="Path_8425" data-name="Path 8425" d="M-905.343,639.437a13.865,13.865,0,0,1-9.916-4.508.686.686,0,0,1-.185-.732.621.621,0,0,1,.519-.431.709.709,0,0,1,.665.275,12.63,12.63,0,0,0,2.862,2.3,12.644,12.644,0,0,0,15.591-2.19c.051-.054.1-.109.153-.161a.669.669,0,0,1,.971-.05.674.674,0,0,1,0,.958,13.7,13.7,0,0,1-3.009,2.473A14.367,14.367,0,0,1-905.343,639.437Z" transform="translate(0 -270.598)" fill="#e5c213"/>
    <path id="Path_8426" data-name="Path 8426" d="M-871.61,610.678a11.241,11.241,0,0,1-8.127-3.473.669.669,0,0,1-.053-.987.664.664,0,0,1,1,.053,9.562,9.562,0,0,0,4.05,2.555,9.82,9.82,0,0,0,9.361-1.666,13.309,13.309,0,0,0,.985-.895.677.677,0,0,1,.989-.06.671.671,0,0,1-.043,1A11.256,11.256,0,0,1-871.61,610.678Z" transform="translate(-33.394 -244.502)" fill="#e5c213"/>
    <path id="Path_8427" data-name="Path 8427" d="M-838.168,581.924a8.5,8.5,0,0,1-5.8-2.435.678.678,0,0,1-.087-.986.666.666,0,0,1,1,.023,7.173,7.173,0,0,0,4.057,1.983,7.193,7.193,0,0,0,5.955-1.821c.078-.069.151-.143.229-.211a.665.665,0,0,1,.94.013.669.669,0,0,1-.03.956,8.588,8.588,0,0,1-2.821,1.851A8.98,8.98,0,0,1-838.168,581.924Z" transform="translate(-67.028 -218.42)" fill="#e5c213"/>
    <path id="Path_8428" data-name="Path 8428" d="M-803.942,553.031a6.224,6.224,0,0,1-4.1-1.411.679.679,0,0,1-.141-.979.665.665,0,0,1,.97-.062,4.638,4.638,0,0,0,3.21,1.068,4.615,4.615,0,0,0,2.765-1.01,1.129,1.129,0,0,1,.446-.225.63.63,0,0,1,.685.38.672.672,0,0,1-.2.8,5.709,5.709,0,0,1-2.425,1.244C-803.206,552.945-803.693,552.992-803.942,553.031Z" transform="translate(-100.791 -192.187)" fill="#e5c213"/>
    <path id="Path_8429" data-name="Path 8429" d="M-769.633,523.4a3.238,3.238,0,0,1-1.427-.389.665.665,0,0,1-.323-.913.664.664,0,0,1,.913-.278,2.046,2.046,0,0,0,1.934,0,.664.664,0,0,1,.911.284.667.667,0,0,1-.309.9A3.518,3.518,0,0,1-769.633,523.4Z" transform="translate(-135.478 -165.23)" fill="#e5c213"/>
  </g>
</svg>
