<svg xmlns="http://www.w3.org/2000/svg" width="12.863" height="11.486" viewBox="0 0 12.863 11.486">
  <g id="Page-1" transform="translate(0 0.007)">
    <g id="_032---Sensor" data-name="032---Sensor" transform="translate(0 -0.007)">
      <path id="Shape" d="M.919,29.23a.23.23,0,0,1,.23-.23H11.715a.23.23,0,0,1,.23.23v.23H.919Zm-.459.919a.23.23,0,0,1,.23-.23H12.174a.23.23,0,0,1,.23.23v2.986H.459Zm12.4,3.9H0v-.23a.23.23,0,0,1,.23-.23h12.4a.23.23,0,0,1,.23.23Z" transform="translate(0 -22.567)" fill="#282377"/>
      <path id="Shape-2" data-name="Shape" d="M14.8,35H4.23a.23.23,0,0,0,0,.459H14.8a.23.23,0,0,0,0-.459Z" transform="translate(-3.081 -27.189)" fill="#282377"/>
      <circle id="Oval" cx="0.5" cy="0.5" r="0.5" transform="translate(5.638 4.065)" fill="#282377"/>
      <path id="Shape-3" data-name="Shape" d="M21.583,12.226a.459.459,0,0,1-.415-.261,1.836,1.836,0,0,0-3.315,0,.459.459,0,0,1-.829-.4,2.755,2.755,0,0,1,4.973,0,.459.459,0,0,1-.413.657Z" transform="translate(-13.079 -7.931)" fill="#282377"/>
      <path id="Shape-4" data-name="Shape" d="M17.674,4.264A.459.459,0,0,1,17.26,4a3.677,3.677,0,0,0-6.632,0,.459.459,0,1,1-.828-.4,4.594,4.594,0,0,1,8.289,0,.459.459,0,0,1-.413.658Z" transform="translate(-7.512 -0.993)" fill="#282377"/>
    </g>
  </g>
</svg>
