<svg id="server" xmlns="http://www.w3.org/2000/svg" width="19.928" height="18.682" viewBox="0 0 19.928 18.682">
  <path id="Path_8525" data-name="Path 8525" d="M132.676,258.335h-.2a3.5,3.5,0,0,0-6.615.026,2.928,2.928,0,0,0-2.468,2.309h-.059a2.335,2.335,0,1,0,0,4.671h9.341a3.5,3.5,0,1,0,0-7.006Z" transform="translate(-116.291 -246.659)" fill="#282377"/>
  <path id="Path_8526" data-name="Path 8526" d="M15.218,16H0v4.671H15.218ZM3.542,19.5H2.374V18.335H3.542Zm2.335,0H4.709V18.335H5.877Zm2.335,0H7.045V18.335H8.212Z" transform="translate(0 -16)" fill="#282377"/>
  <path id="Path_8527" data-name="Path 8527" d="M12.883,168.335a4.658,4.658,0,0,1,2.335.63V166H0v3.5H9.807A4.66,4.66,0,0,1,12.883,168.335Zm-9.341,0H2.374v-1.168H3.542Zm2.335,0H4.709v-1.168H5.877Zm2.335,0H7.045v-1.168H8.212Z" transform="translate(0 -160.162)" fill="#282377"/>
  <path id="Path_8528" data-name="Path 8528" d="M6.227,288.432a4.094,4.094,0,0,1,2.508-2.243c.034-.066.078-.125.115-.189H0v4.671H3.743A3.517,3.517,0,0,1,6.227,288.432Zm-1.517-1.264H5.877v1.168H4.709Zm-1.168,1.168H2.374v-1.168H3.542Z" transform="translate(0 -275.491)" fill="#282377"/>
</svg>
