<svg xmlns="http://www.w3.org/2000/svg" width="23.044" height="21.603" viewBox="0 0 23.044 21.603">
  <g id="database" transform="translate(0 -16)">
    <path id="Path_11023" data-name="Path 11023" d="M134.5,258.7h-.231a4.051,4.051,0,0,0-7.649.03,3.385,3.385,0,0,0-2.853,2.67H123.7a2.7,2.7,0,1,0,0,5.4h10.8a4.051,4.051,0,1,0,0-8.1Z" transform="translate(-115.554 -229.198)" fill="#fff"/>
    <path id="Path_11024" data-name="Path 11024" d="M17.6,16H0v5.4H17.6ZM4.1,20.051H2.745V18.7H4.1Zm2.7,0H5.446V18.7H6.8Zm2.7,0H8.146V18.7H9.5Z" fill="#fff"/>
    <path id="Path_11025" data-name="Path 11025" d="M14.9,168.7a5.386,5.386,0,0,1,2.7.728V166H0v4.051H11.341A5.388,5.388,0,0,1,14.9,168.7Zm-10.8,0H2.745v-1.35H4.1Zm2.7,0H5.446v-1.35H6.8Zm2.7,0H8.146v-1.35H9.5Z" transform="translate(0 -143.249)" fill="#fff"/>
    <path id="Path_11026" data-name="Path 11026" d="M7.2,288.812a4.734,4.734,0,0,1,2.9-2.594c.039-.076.09-.144.133-.218H0v5.4H4.328A4.067,4.067,0,0,1,7.2,288.812ZM5.446,287.35H6.8v1.35H5.446ZM4.1,288.7H2.745v-1.35H4.1Z" transform="translate(0 -257.848)" fill="#fff"/>
  </g>
</svg>
