<svg xmlns="http://www.w3.org/2000/svg" width="18.988" height="18.993" viewBox="0 0 18.988 18.993">
  <path id="Icon_ionic-ios-settings" data-name="Icon ionic-ios-settings" d="M21.921,13.994a2.443,2.443,0,0,1,1.568-2.28,9.685,9.685,0,0,0-1.172-2.823,2.476,2.476,0,0,1-.994.213,2.438,2.438,0,0,1-2.23-3.432A9.656,9.656,0,0,0,16.274,4.5a2.441,2.441,0,0,1-4.559,0A9.685,9.685,0,0,0,8.891,5.672,2.438,2.438,0,0,1,6.661,9.1a2.4,2.4,0,0,1-.994-.213A9.9,9.9,0,0,0,4.5,11.719a2.443,2.443,0,0,1,0,4.559A9.685,9.685,0,0,0,5.677,19.1,2.439,2.439,0,0,1,8.9,22.321a9.742,9.742,0,0,0,2.823,1.172,2.437,2.437,0,0,1,4.549,0,9.685,9.685,0,0,0,2.823-1.172A2.441,2.441,0,0,1,22.311,19.1a9.742,9.742,0,0,0,1.172-2.823A2.455,2.455,0,0,1,21.921,13.994Zm-7.882,3.951a3.956,3.956,0,1,1,3.956-3.956A3.955,3.955,0,0,1,14.039,17.945Z" transform="translate(-4.5 -4.5)" fill="#212121"/>
</svg>
