<?xml version="1.0" encoding="utf-8"?>
<!-- Generator: Adobe Illustrator 17.0.0, SVG Export Plug-In . SVG Version: 6.00 Build 0)  -->
<!DOCTYPE svg PUBLIC "-//W3C//DTD SVG 1.1//EN" "http://www.w3.org/Graphics/SVG/1.1/DTD/svg11.dtd">
<svg version="1.1" id="Layer_8_copy_4" xmlns="http://www.w3.org/2000/svg" xmlns:xlink="http://www.w3.org/1999/xlink" x="0px"
	 y="0px" width="420px" height="100px" viewBox="-6 -7.5 420 100" enable-background="new -6 -7.5 420 100" xml:space="preserve">
<path fill="#FFFFFF" d="M414,84.664c0,4.327-3.508,7.836-7.836,7.836H1.836C-2.492,92.5-6,88.992-6,84.664V0.336
	C-6-3.992-2.492-7.5,1.836-7.5h404.329c4.327,0,7.836,3.508,7.836,7.836V84.664z"/>
<g>
	<g>
		<path fill="#221E6E" d="M92.83,28.733h14.423l7.608,23.766l2.972,11.962h0.327c0.357-5.736,0.623-13.766,1.779-20.322
			l2.717-15.407h13.439l-9.392,53.265h-14.421l-7.594-23.846l-2.985-11.883h-0.327c-0.415,6.066-0.626,13.768-1.782,20.324
			l-2.717,15.405H83.438L92.83,28.733z"/>
		<polygon fill="#221E6E" points="142.986,28.733 157.08,28.733 147.687,81.998 133.594,81.998 		"/>
		<path fill="#221E6E" d="M184.616,28.733h-20.649l-9.392,53.265h14.093l2.978-16.879h6.556c11.145,0,22.299-5.655,24.597-18.685
			C205.169,32.995,196.089,28.733,184.616,28.733z M189.033,46.434c-0.838,4.754-3.951,7.54-9.522,7.54h-5.901l2.485-14.096h5.901
			C187.241,39.878,189.871,41.682,189.033,46.434z"/>
		<polygon fill="#221E6E" points="209.697,28.733 244.111,28.733 242.031,40.535 221.71,40.535 220.236,48.894 237.607,48.894 
			235.526,60.694 218.154,60.694 216.479,70.198 237.62,70.198 235.539,81.998 200.304,81.998 		"/>
		<path fill="#221E6E" d="M270.505,28.733h-20.159l-9.391,53.265h14.093l3.098-17.574l7.589,17.574h15.732l-9.036-19.64l5.023-1.011
			c5.655-2.786,9.978-7.782,11.323-15.403C291.116,32.668,281.977,28.733,270.505,28.733z M275.011,45.944
			c-0.811,4.587-4.194,7.048-9.766,7.048h-5.082l2.312-13.114h5.082C273.128,39.878,275.819,41.354,275.011,45.944z"/>
		<path fill="#221E6E" d="M60.685,28.719H49.642l-0.864,0.172c-3.333,0-7.182,5.839-7.182,5.839L37.1,41.761l-0.115,0.303h21.35
			c7.366,0,12.301,5.993,11.002,13.357c-1.298,7.365-8.348,13.359-15.714,13.359H14.076c-3.156,0.681-6.506,5.76-6.506,5.76
			l-4.507,7.048l-0.308,0.534H51.27c14.723,0,28.816-11.978,31.412-26.701C85.279,40.7,75.409,28.719,60.685,28.719z"/>
		<path fill="#221E6E" d="M47.591,9.525C32.868,9.526,18.778,21.504,16.18,36.228c-2.597,14.724,7.271,26.702,21.997,26.701
			l12.168,0.001l0.867-0.172c3.334,0,7.181-5.837,7.181-5.837l4.56-7.126l0.098-0.21H40.528c-7.366,0-12.302-5.994-11.003-13.359
			c1.297-7.364,8.348-13.355,15.713-13.355h91.846l2.312-13.346C139.396,9.525,47.591,9.525,47.591,9.525z"/>
	</g>
	<g>
		<g>
			<g>
				<path fill="#FFFFFF" d="M397.225,26.637h-11.208l2.729-15.486c0.528-2.993-1.472-5.422-4.465-5.422h-58.996
					c-2.996,0-5.851,2.429-6.38,5.422l-7.671,43.506c-0.528,2.998,1.472,5.422,4.468,5.422h8.897l-2.343,13.292
					c-0.528,2.998,1.472,5.422,4.467,5.422h61.306c2.998,0,5.854-2.424,6.382-5.422l7.285-41.312
					C402.224,29.066,400.221,26.637,397.225,26.637z"/>
			</g>
			<path fill="#221E6E" d="M384.281,5.728c2.994,0,4.994,2.429,4.465,5.422l-2.729,15.486h11.208c2.996,0,4.998,2.429,4.47,5.422
				L394.41,73.37c-0.528,2.998-3.384,5.422-6.382,5.422h-61.306c-2.996,0-4.996-2.424-4.468-5.422l2.343-13.292H315.7
				c-2.996,0-4.996-2.424-4.468-5.422l7.671-43.506c0.528-2.993,3.384-5.422,6.38-5.422L384.281,5.728 M384.281,2.261h-58.996
				c-4.672,0-8.974,3.64-9.794,8.287l-7.671,43.506c-0.433,2.456,0.185,4.896,1.695,6.695c1.492,1.777,3.747,2.797,6.188,2.797
				h4.764l-1.626,9.222c-0.433,2.456,0.185,4.896,1.695,6.695c1.492,1.777,3.747,2.797,6.188,2.797h61.306
				c4.675,0,8.978-3.641,9.797-8.288l7.285-41.311c0.433-2.453-0.185-4.892-1.695-6.692c-1.493-1.779-3.749-2.8-6.189-2.8h-7.076
				l2.012-11.417c0.433-2.454-0.185-4.894-1.695-6.694C388.974,3.28,386.72,2.261,384.281,2.261L384.281,2.261z"/>
		</g>
		<g>
			
				<linearGradient id="SVGID_1_" gradientUnits="userSpaceOnUse" x1="397.924" y1="60.9427" x2="403.1252" y2="83.0478" gradientTransform="matrix(1 0 0 -1 -8.36 109.055)">
				<stop  offset="0" style="stop-color:#272579"/>
				<stop  offset="1" style="stop-color:#00AEED"/>
			</linearGradient>
			<path fill="url(#SVGID_1_)" d="M397.226,26.637h-11.21l-1.7,9.639h16.634l0.745-4.217
				C402.223,29.066,400.221,26.637,397.226,26.637z"/>
		</g>
		<g>
			
				<linearGradient id="SVGID_2_" gradientUnits="userSpaceOnUse" x1="360.2327" y1="87.3624" x2="364.2455" y2="108.7478" gradientTransform="matrix(1 0 0 -1 -8.36 109.055)">
				<stop  offset="0" style="stop-color:#272579"/>
				<stop  offset="1" style="stop-color:#00AEED"/>
			</linearGradient>
			<path fill="url(#SVGID_2_)" d="M384.281,5.728h-58.996c-2.996,0-5.851,2.429-6.38,5.422l-0.743,4.217h69.844l0.74-4.217
				C389.275,8.157,387.275,5.728,384.281,5.728z"/>
		</g>
		<g>
			<path fill="#00AEED" d="M329.091,60.079c-1.321-2.631-2.345-5.431-3.017-8.369l-1.476,8.369H329.091z"/>
			<path fill="#00AEED" d="M336.789,60.079c-3.135-4.806-4.976-10.531-4.976-16.685c0-6.184,1.856-11.937,5.02-16.757h-0.916
				c-2.993,0-5.849,2.429-6.377,5.422l-2.997,16.995c0.616,3.915,1.838,7.626,3.6,11.024L336.789,60.079L336.789,60.079z"/>
			<path fill="#00AEED" d="M386.017,26.637h-6.499c2.186,2.225,3.933,4.875,5.121,7.813L386.017,26.637z"/>
			<path fill="#00AEED" d="M379.685,43.394c0,8.041-5.543,14.792-13.003,16.685h8.017c2.994,0,5.849-2.424,6.377-5.422l3.236-18.349
				c-1.214-3.736-3.366-7.043-6.169-9.67h-11.729C374.009,28.433,379.685,35.256,379.685,43.394z"/>
		</g>
		<g>
			<g>
				<path fill="#E3A22A" d="M338.102,51.32l23.103-8.126c0.327-0.128,0.682-0.056,0.939,0.184c0.253,0.211,0.366,0.554,0.302,0.893
					l-4.856,23.944c-0.081,0.379-0.381,0.673-0.758,0.767c-0.129,0.013-0.257,0.008-0.386-0.016
					c-0.242-0.052-0.456-0.173-0.589-0.39l-5.005-7.349l-7.436,8.46c-0.384,0.438-0.912,0.712-1.474,0.749
					c-0.196,0.012-0.388,0.018-0.573-0.024c-0.368-0.07-0.709-0.246-0.989-0.491l-1.826-1.58c-0.876-0.78-0.953-2.149-0.172-3.034
					l7.386-8.427l-7.786-3.801c-0.343-0.168-0.555-0.535-0.522-0.913C337.488,51.787,337.743,51.46,338.102,51.32z"/>
			</g>
			<g>
				<path fill="none" d="M352.871,43.394c0-5.285,4.298-9.584,9.583-9.584c5.282,0,9.581,4.299,9.581,9.584
					c0,5.045-3.93,9.149-8.882,9.514l-0.195,0.962c5.566-0.269,10.023-4.844,10.023-10.477c0-5.805-4.723-10.528-10.527-10.528
					c-5.806,0-10.529,4.723-10.529,10.528c0,0.169,0.042,0.327,0.05,0.494l0.913-0.321
					C352.887,43.508,352.871,43.453,352.871,43.394z"/>
				<path fill="none" d="M361.533,40.723c0.815,0,1.597,0.302,2.208,0.851c0.883,0.769,1.294,1.966,1.067,3.176l-0.388,1.911
					c1.108-0.671,1.858-1.878,1.858-3.267c0-2.147-1.68-3.828-3.824-3.828c-1.351,0-2.534,0.708-3.215,1.767l1.092-0.384
					C360.717,40.799,361.121,40.723,361.533,40.723z"/>
				<path fill="#00AEED" d="M336.922,55.241c-1.234-0.605-1.981-1.927-1.863-3.249c0.094-1.295,0.945-2.439,2.245-2.944l1.761-0.619
					c-0.351-1.625-0.548-3.306-0.548-5.035c0-6.522,2.628-12.436,6.873-16.757h-7.426c-3.277,4.774-5.203,10.543-5.203,16.757
					c0,6.182,1.904,11.926,5.15,16.685h1.853l2.118-2.417L336.922,55.241z"/>
				<path fill="#00AEED" d="M345.222,43.394c0-8.138,5.676-14.961,13.272-16.757h-11.729c-4.48,4.198-7.299,10.148-7.299,16.757
					c0,1.618,0.172,3.196,0.494,4.72l5.502-1.935C345.313,45.271,345.222,44.343,345.222,43.394z"/>
				<path fill="#00AEED" d="M362.454,27.11c-8.98,0-16.285,7.305-16.285,16.284c0,0.839,0.084,1.658,0.207,2.464l5.6-1.969
					c-0.008-0.167-0.05-0.325-0.05-0.494c0-5.805,4.723-10.528,10.529-10.528c5.804,0,10.527,4.723,10.527,10.528
					c0,5.633-4.457,10.207-10.023,10.477l-1.171,5.774c0.223,0.009,0.442,0.034,0.667,0.034c8.978,0,16.283-7.305,16.283-16.284
					S371.432,27.11,362.454,27.11z"/>
				<path fill="#00AEED" d="M362.454,39.566c2.145,0,3.824,1.681,3.824,3.828c0,1.388-0.75,2.595-1.858,3.267l-1.267,6.248
					c4.951-0.366,8.882-4.469,8.882-9.514c0-5.285-4.298-9.584-9.581-9.584c-5.285,0-9.583,4.299-9.583,9.584
					c0,0.059,0.016,0.114,0.018,0.173l6.351-2.233C359.92,40.274,361.103,39.566,362.454,39.566z"/>
			</g>
		</g>
	</g>
	<g>
		<g>
			<path fill="#E3A22A" d="M220.464,9.496h3.368L221.8,21.013c-0.144,0.819,0.124,1.307,0.806,1.463h4.944
				c0.727-0.167,1.16-0.655,1.303-1.463c0.341-1.93,0.675-3.849,1-5.759s0.657-3.829,0.998-5.759c0.632,0,1.002,0.016,1.12,0.047
				c0.203,0.043,0.397,0.086,0.585,0.131c0.183,0.05,0.354,0.129,0.512,0.242c0.156,0.115,0.298,0.275,0.42,0.483
				c0.124,0.208,0.221,0.488,0.293,0.84c0.246-0.404,0.494-0.725,0.738-0.955c0.248-0.237,0.494-0.411,0.743-0.531
				c0.246-0.12,0.499-0.194,0.754-0.226c0.253-0.032,0.512-0.047,0.779-0.047c2.334,0,4.641,0.002,6.924,0.007
				c2.285,0.007,4.594,0.009,6.928,0.009l-1.465,8.31c-0.09,0.51-0.203,0.948-0.341,1.316s-0.307,0.682-0.512,0.941
				c-0.208,0.26-0.451,0.463-0.731,0.607s-0.6,0.244-0.964,0.296c-0.242,0.05-0.54,0.09-0.892,0.117
				c-0.352,0.025-0.761,0.038-1.226,0.038h-12.328l-0.167,0.948c-0.174,0.987-0.447,1.727-0.817,2.226s-0.883,0.819-1.54,0.966
				c-0.628,0.113-1.402,0.169-2.318,0.169h-9.691L220.464,9.496z M232.728,18.133h10.917c0.3,0,0.564-0.018,0.799-0.054
				c0.233-0.036,0.436-0.102,0.605-0.194V17.9c0.551-0.3,0.892-0.826,1.023-1.571l0.679-3.86h-12.01
				c-0.363,0.113-0.65,0.291-0.86,0.528c-0.205,0.239-0.345,0.56-0.418,0.966L232.728,18.133z"/>
			<g>
				<polygon fill="#E3A22A" points="263.57,5.372 260.218,5.372 259.777,7.861 263.132,7.861 				"/>
				<polygon fill="#E3A22A" points="273.024,5.372 269.656,5.372 269.218,7.861 272.586,7.861 				"/>
				<path fill="#E3A22A" d="M274.952,17.496c0.007-0.01,0.012-0.027,0.019-0.038c0.002-0.003,0.002-0.006,0.004-0.009
					L274.952,17.496z"/>
				<polygon fill="#E3A22A" points="277.837,5.372 274.485,5.372 274.045,7.861 277.399,7.861 				"/>
				<path fill="#E3A22A" d="M283.865,5.715l-1.932,10.955c-0.144,0.822-0.582,1.307-1.318,1.463h-0.63h-0.233h-1.427l0.939-5.321
					c0.178-1.016,0.149-1.77-0.086-2.257s-0.711-0.79-1.431-0.903c-0.248-0.05-0.533-0.09-0.862-0.115
					c-0.325-0.027-0.698-0.041-1.12-0.041h-5.127c-0.485,0-0.905,0.014-1.262,0.041c-0.35,0.025-0.655,0.065-0.908,0.115
					c-0.716,0.113-1.266,0.42-1.652,0.919c-0.388,0.497-0.668,1.244-0.844,2.242l-0.939,5.321h-1.61l-0.005,0.032h-1.107
					c-0.334-0.113-0.564-0.291-0.689-0.528c-0.124-0.239-0.149-0.562-0.079-0.966l1.266-7.174h-3.352l-1.26,7.143
					c-0.135,0.759-0.542,1.235-1.23,1.433c-0.07,0.011-0.21,0.018-0.431,0.029c-0.162,0.008-0.337,0.022-0.511,0.036l0.001-0.004
					h-0.614c-0.67-0.156-0.93-0.641-0.786-1.463l1.93-10.955h-3.337l-2.12,12.03c-0.174,0.975-0.165,1.709,0.027,2.201
					c0.187,0.492,0.596,0.817,1.219,0.973c0.544,0.124,1.291,0.187,2.242,0.187h0.749l0.806,0.032
					c0.594,0.02,1.079-0.018,1.454-0.117c0.379-0.099,0.691-0.242,0.941-0.429c0.246-0.185,0.445-0.402,0.594-0.646
					s0.291-0.501,0.427-0.77c0.032,0.447,0.169,0.799,0.411,1.059s0.535,0.454,0.878,0.582c0.339,0.131,0.707,0.21,1.102,0.242
					c0.342,0.028,0.655,0.033,0.954,0.028l-0.004,0.02h16.328h0.233h0.928c0.964,0,1.738-0.063,2.325-0.187
					c0.668-0.156,1.183-0.481,1.549-0.973c0.361-0.492,0.628-1.226,0.799-2.201l2.122-12.03h-3.318V5.715z M275.715,13.932
					l-0.49,2.77c-0.034,0.199-0.074,0.359-0.12,0.483c-0.04,0.109-0.085,0.196-0.135,0.273c-0.01,0.018-0.019,0.036-0.021,0.052
					c-0.208,0.354-0.614,0.562-1.221,0.623h-4.314c-0.214-0.043-0.386-0.093-0.512-0.156c-0.129-0.061-0.217-0.149-0.271-0.255
					c-0.052-0.111-0.077-0.244-0.068-0.404c0.005-0.163,0.032-0.368,0.074-0.616l0.49-2.77c0.079-0.456,0.253-0.813,0.519-1.066
					c0.266-0.255,0.628-0.397,1.086-0.429h4.215c0.312,0.113,0.535,0.293,0.668,0.535C275.751,13.218,275.783,13.539,275.715,13.932
					z"/>
			</g>
			<path fill="#E3A22A" d="M290.743,21.106h-3.368l2.713-15.391h3.368L290.743,21.106z"/>
		</g>
	</g>
	<g>
		<polygon fill="#ACE1F8" points="167.463,9.525 165.113,22.871 210.558,22.871 212.91,9.525 		"/>
	</g>
	<g>
		<path fill="#E3A22A" d="M144.732,14.436l13.857-4.874c0.195-0.077,0.411-0.034,0.563,0.11c0.151,0.126,0.219,0.333,0.179,0.535
			l-2.912,14.361c-0.049,0.227-0.229,0.404-0.455,0.46c-0.078,0.008-0.152,0.005-0.23-0.009c-0.144-0.031-0.273-0.104-0.352-0.234
			l-3.004-4.409l-4.461,5.074c-0.228,0.263-0.545,0.427-0.884,0.449c-0.119,0.008-0.236,0.011-0.344-0.014
			c-0.22-0.043-0.426-0.148-0.593-0.295l-1.097-0.948c-0.527-0.467-0.571-1.289-0.101-1.819l4.429-5.054l-4.667-2.281
			c-0.21-0.099-0.334-0.319-0.315-0.548C144.362,14.715,144.515,14.519,144.732,14.436z"/>
	</g>
</g>
</svg>
