<?xml version="1.0" encoding="utf-8"?>
<!-- Generator: Adobe Illustrator 17.0.0, SVG Export Plug-In . SVG Version: 6.00 Build 0)  -->
<!DOCTYPE svg PUBLIC "-//W3C//DTD SVG 1.1//EN" "http://www.w3.org/Graphics/SVG/1.1/DTD/svg11.dtd">
<svg version="1.1" id="Layer_8_copy_4" xmlns="http://www.w3.org/2000/svg" xmlns:xlink="http://www.w3.org/1999/xlink" x="0px"
	 y="0px" width="520px" height="142px" viewBox="989 -20.991 520 142" enable-background="new 989 -20.991 520 142"
	 xml:space="preserve">
<g>
	<path fill="none" stroke="#FFFFFF" stroke-width="2" stroke-miterlimit="10" d="M1508.441-18.839h-459.88
		c-10.028,0-19.012,7.816-20.452,17.793l-14.336,99.252c0,0-2.274,10.053-13.149,10.053"/>
	<path fill="none" stroke="#FFFFFF" stroke-width="2" stroke-miterlimit="10" d="M989.559,118.858h461.879
		c10.025,0,19.01-7.814,20.454-17.793l14.335-99.25c0,0,1.257-10.077,12.302-10.077"/>
	<path fill="#FFFFFF" d="M1461.992,99.635c-0.735,5.093-5.461,9.223-10.555,9.223h-419.876c-5.094,0-8.626-4.129-7.891-9.223
		l14.336-99.251c0.736-5.094,5.461-9.223,10.555-9.223h419.877c5.093,0,8.626,4.129,7.891,9.223l-14.336,99.251H1461.992z"/>
	<g>
		<g>
			<path fill="#221E6E" d="M1136.829,35.482h14.423l7.608,23.766l2.972,11.962h0.327c0.357-5.736,0.623-13.766,1.779-20.322
				l2.717-15.407h13.439l-9.392,53.265h-14.421l-7.594-23.846l-2.985-11.883h-0.327c-0.415,6.066-0.626,13.768-1.782,20.324
				l-2.717,15.405h-13.439L1136.829,35.482z"/>
			<polygon fill="#221E6E" points="1186.985,35.482 1201.079,35.482 1191.686,88.747 1177.593,88.747 			"/>
			<path fill="#221E6E" d="M1228.615,35.482h-20.649l-9.392,53.265h14.093l2.978-16.879h6.556c11.145,0,22.299-5.655,24.597-18.685
				C1249.168,39.744,1240.088,35.482,1228.615,35.482z M1233.032,53.183c-0.838,4.754-3.951,7.54-9.522,7.54h-5.901l2.485-14.096
				h5.901C1231.24,46.627,1233.87,48.431,1233.032,53.183z"/>
			<polygon fill="#221E6E" points="1253.696,35.482 1288.11,35.482 1286.03,47.284 1265.709,47.284 1264.235,55.643 
				1281.606,55.643 1279.525,67.443 1262.153,67.443 1260.478,76.947 1281.619,76.947 1279.538,88.747 1244.303,88.747 			"/>
			<path fill="#221E6E" d="M1314.504,35.482h-20.159l-9.391,53.265h14.093l3.098-17.574l7.589,17.574h15.732l-9.036-19.64
				l5.023-1.011c5.655-2.786,9.978-7.782,11.323-15.403C1335.115,39.417,1325.976,35.482,1314.504,35.482z M1319.01,52.693
				c-0.811,4.587-4.194,7.048-9.766,7.048h-5.082l2.312-13.114h5.082C1317.127,46.627,1319.818,48.103,1319.01,52.693z"/>
			<path fill="#221E6E" d="M1104.684,35.468h-11.043l-0.864,0.172c-3.333,0-7.182,5.839-7.182,5.839l-4.496,7.031l-0.115,0.303
				h21.35c7.366,0,12.301,5.993,11.002,13.357c-1.298,7.365-8.348,13.359-15.714,13.359h-39.547c-3.156,0.681-6.506,5.76-6.506,5.76
				l-4.507,7.048l-0.308,0.534h48.515c14.723,0,28.816-11.978,31.412-26.701C1129.278,47.449,1119.408,35.468,1104.684,35.468z"/>
			<path fill="#221E6E" d="M1091.59,16.274c-14.723,0.001-28.813,11.979-31.411,26.703c-2.597,14.724,7.271,26.702,21.997,26.701
				l12.168,0.001l0.867-0.172c3.334,0,7.181-5.837,7.181-5.837l4.56-7.126l0.098-0.21h-22.523c-7.366,0-12.302-5.994-11.003-13.359
				c1.297-7.364,8.348-13.355,15.713-13.355h91.846l2.312-13.346C1183.395,16.274,1091.59,16.274,1091.59,16.274z"/>
		</g>
		<g>
			<g>
				<g>
					<path fill="#FFFFFF" d="M1441.224,33.386h-11.208l2.729-15.486c0.528-2.993-1.472-5.422-4.465-5.422h-58.996
						c-2.996,0-5.851,2.429-6.38,5.422l-7.671,43.506c-0.528,2.998,1.472,5.422,4.468,5.422h8.897l-2.343,13.292
						c-0.528,2.998,1.472,5.422,4.467,5.422h61.306c2.998,0,5.854-2.424,6.382-5.422l7.285-41.312
						C1446.223,35.815,1444.22,33.386,1441.224,33.386z"/>
				</g>
				<path fill="#221E6E" d="M1428.28,12.477c2.994,0,4.994,2.429,4.465,5.422l-2.729,15.486h11.208c2.996,0,4.998,2.429,4.47,5.422
					l-7.285,41.312c-0.528,2.998-3.384,5.422-6.382,5.422h-61.306c-2.996,0-4.996-2.424-4.468-5.422l2.343-13.292h-8.897
					c-2.996,0-4.996-2.424-4.468-5.422l7.671-43.506c0.528-2.993,3.384-5.422,6.38-5.422L1428.28,12.477 M1428.28,9.01h-58.996
					c-4.672,0-8.974,3.64-9.794,8.287l-7.671,43.506c-0.433,2.456,0.185,4.896,1.695,6.695c1.492,1.777,3.747,2.797,6.188,2.797
					h4.764l-1.626,9.222c-0.433,2.456,0.185,4.896,1.695,6.695c1.492,1.777,3.747,2.797,6.188,2.797h61.306
					c4.675,0,8.978-3.641,9.797-8.288l7.285-41.311c0.433-2.453-0.185-4.892-1.695-6.692c-1.493-1.779-3.749-2.8-6.189-2.8h-7.076
					l2.012-11.417c0.433-2.454-0.185-4.894-1.695-6.694C1432.973,10.029,1430.719,9.01,1428.28,9.01L1428.28,9.01z"/>
			</g>
			<g>
				
					<linearGradient id="SVGID_1_" gradientUnits="userSpaceOnUse" x1="1450.2827" y1="762.7512" x2="1455.484" y2="740.6461" gradientTransform="matrix(1 0 0 1 -16.72 -707.89)">
					<stop  offset="0" style="stop-color:#272579"/>
					<stop  offset="1" style="stop-color:#00AEED"/>
				</linearGradient>
				<path fill="url(#SVGID_1_)" d="M1441.225,33.386h-11.21l-1.7,9.639h16.634l0.745-4.217
					C1446.222,35.815,1444.22,33.386,1441.225,33.386z"/>
			</g>
			<g>
				
					<linearGradient id="SVGID_2_" gradientUnits="userSpaceOnUse" x1="1412.5916" y1="736.3315" x2="1416.6042" y2="714.9461" gradientTransform="matrix(1 0 0 1 -16.72 -707.89)">
					<stop  offset="0" style="stop-color:#272579"/>
					<stop  offset="1" style="stop-color:#00AEED"/>
				</linearGradient>
				<path fill="url(#SVGID_2_)" d="M1428.28,12.477h-58.996c-2.996,0-5.851,2.429-6.38,5.422l-0.743,4.217h69.844l0.74-4.217
					C1433.274,14.906,1431.274,12.477,1428.28,12.477z"/>
			</g>
			<g>
				<path fill="#00AEED" d="M1373.09,66.828c-1.321-2.631-2.345-5.431-3.017-8.369l-1.476,8.369H1373.09z"/>
				<path fill="#00AEED" d="M1380.788,66.828c-3.135-4.806-4.976-10.531-4.976-16.685c0-6.184,1.856-11.937,5.02-16.757h-0.916
					c-2.993,0-5.849,2.429-6.377,5.422l-2.997,16.995c0.616,3.915,1.838,7.626,3.6,11.024L1380.788,66.828L1380.788,66.828z"/>
				<path fill="#00AEED" d="M1430.016,33.386h-6.499c2.186,2.225,3.933,4.875,5.121,7.813L1430.016,33.386z"/>
				<path fill="#00AEED" d="M1423.684,50.143c0,8.041-5.543,14.792-13.003,16.685h8.017c2.994,0,5.849-2.424,6.377-5.422
					l3.236-18.349c-1.214-3.736-3.366-7.043-6.169-9.67h-11.729C1418.008,35.182,1423.684,42.005,1423.684,50.143z"/>
			</g>
			<g>
				<g>
					<path fill="#E3A22A" d="M1382.101,58.069l23.103-8.126c0.327-0.128,0.682-0.056,0.939,0.184
						c0.253,0.211,0.366,0.554,0.302,0.893l-4.856,23.944c-0.081,0.379-0.381,0.673-0.758,0.767
						c-0.129,0.013-0.257,0.008-0.386-0.016c-0.242-0.052-0.456-0.173-0.589-0.39l-5.005-7.349l-7.436,8.46
						c-0.384,0.438-0.912,0.712-1.474,0.749c-0.196,0.012-0.388,0.018-0.573-0.024c-0.368-0.07-0.709-0.246-0.989-0.491l-1.826-1.58
						c-0.876-0.78-0.953-2.149-0.172-3.034l7.386-8.427l-7.786-3.801c-0.343-0.168-0.555-0.535-0.522-0.913
						C1381.487,58.536,1381.742,58.209,1382.101,58.069z"/>
				</g>
				<g>
					<path fill="none" d="M1396.87,50.143c0-5.285,4.298-9.584,9.583-9.584c5.282,0,9.581,4.299,9.581,9.584
						c0,5.045-3.93,9.149-8.882,9.514l-0.195,0.962c5.566-0.269,10.023-4.844,10.023-10.477c0-5.805-4.723-10.528-10.527-10.528
						c-5.806,0-10.529,4.723-10.529,10.528c0,0.169,0.042,0.327,0.05,0.494l0.913-0.321
						C1396.886,50.257,1396.87,50.202,1396.87,50.143z"/>
					<path fill="none" d="M1405.532,47.472c0.815,0,1.597,0.302,2.208,0.851c0.883,0.769,1.294,1.966,1.067,3.176l-0.388,1.911
						c1.108-0.671,1.858-1.878,1.858-3.267c0-2.147-1.68-3.828-3.824-3.828c-1.351,0-2.534,0.708-3.215,1.767l1.092-0.384
						C1404.716,47.548,1405.12,47.472,1405.532,47.472z"/>
					<path fill="#00AEED" d="M1380.921,61.99c-1.234-0.605-1.981-1.927-1.863-3.249c0.094-1.295,0.945-2.439,2.245-2.944
						l1.761-0.619c-0.351-1.625-0.548-3.306-0.548-5.035c0-6.522,2.628-12.436,6.873-16.757h-7.426
						c-3.277,4.774-5.203,10.543-5.203,16.757c0,6.182,1.904,11.926,5.15,16.685h1.853l2.118-2.417L1380.921,61.99z"/>
					<path fill="#00AEED" d="M1389.221,50.143c0-8.138,5.676-14.961,13.272-16.757h-11.729c-4.48,4.198-7.299,10.148-7.299,16.757
						c0,1.618,0.172,3.196,0.494,4.72l5.502-1.935C1389.312,52.02,1389.221,51.092,1389.221,50.143z"/>
					<path fill="#00AEED" d="M1406.453,33.859c-8.98,0-16.285,7.305-16.285,16.284c0,0.839,0.084,1.658,0.207,2.464l5.6-1.969
						c-0.008-0.167-0.05-0.325-0.05-0.494c0-5.805,4.723-10.528,10.529-10.528c5.804,0,10.527,4.723,10.527,10.528
						c0,5.633-4.457,10.207-10.023,10.477l-1.171,5.774c0.223,0.009,0.442,0.034,0.667,0.034c8.978,0,16.283-7.305,16.283-16.284
						S1415.431,33.859,1406.453,33.859z"/>
					<path fill="#00AEED" d="M1406.453,46.315c2.145,0,3.824,1.681,3.824,3.828c0,1.388-0.75,2.595-1.858,3.267l-1.267,6.248
						c4.951-0.366,8.882-4.469,8.882-9.514c0-5.285-4.298-9.584-9.581-9.584c-5.285,0-9.583,4.299-9.583,9.584
						c0,0.059,0.016,0.114,0.018,0.173l6.351-2.233C1403.919,47.023,1405.102,46.315,1406.453,46.315z"/>
				</g>
			</g>
		</g>
		<g>
			<g>
				<path fill="#E3A22A" d="M1264.463,16.245h3.368l-2.032,11.517c-0.144,0.819,0.124,1.307,0.806,1.463h4.944
					c0.727-0.167,1.16-0.655,1.303-1.463c0.341-1.93,0.675-3.849,1-5.759c0.325-1.91,0.657-3.829,0.998-5.759
					c0.632,0,1.002,0.016,1.12,0.047c0.203,0.043,0.397,0.086,0.585,0.131c0.183,0.05,0.354,0.129,0.512,0.242
					c0.156,0.115,0.298,0.275,0.42,0.483c0.124,0.208,0.221,0.488,0.293,0.84c0.246-0.404,0.494-0.725,0.738-0.955
					c0.248-0.237,0.494-0.411,0.743-0.531c0.246-0.12,0.499-0.194,0.754-0.226c0.253-0.032,0.512-0.047,0.779-0.047
					c2.334,0,4.641,0.002,6.924,0.007c2.285,0.007,4.594,0.009,6.928,0.009l-1.465,8.31c-0.09,0.51-0.203,0.948-0.341,1.316
					c-0.138,0.368-0.307,0.682-0.512,0.941c-0.208,0.26-0.451,0.463-0.731,0.607c-0.28,0.144-0.6,0.244-0.964,0.296
					c-0.242,0.05-0.54,0.09-0.892,0.117c-0.352,0.025-0.761,0.038-1.226,0.038h-12.328l-0.167,0.948
					c-0.174,0.987-0.447,1.727-0.817,2.226s-0.883,0.819-1.54,0.966c-0.628,0.113-1.402,0.169-2.318,0.169h-9.691L1264.463,16.245z
					 M1276.727,24.882h10.917c0.3,0,0.564-0.018,0.799-0.054c0.233-0.036,0.436-0.102,0.605-0.194v0.015
					c0.551-0.3,0.892-0.826,1.023-1.571l0.679-3.86h-12.01c-0.363,0.113-0.65,0.291-0.86,0.528c-0.205,0.239-0.345,0.56-0.418,0.966
					L1276.727,24.882z"/>
				<g>
					<polygon fill="#E3A22A" points="1307.569,12.121 1304.217,12.121 1303.776,14.61 1307.131,14.61 					"/>
					<polygon fill="#E3A22A" points="1317.023,12.121 1313.655,12.121 1313.217,14.61 1316.585,14.61 					"/>
					<path fill="#E3A22A" d="M1318.951,24.245c0.007-0.01,0.012-0.027,0.019-0.038c0.002-0.003,0.002-0.006,0.004-0.009
						L1318.951,24.245z"/>
					<polygon fill="#E3A22A" points="1321.836,12.121 1318.484,12.121 1318.044,14.61 1321.398,14.61 					"/>
					<path fill="#E3A22A" d="M1327.864,12.464l-1.932,10.955c-0.144,0.822-0.582,1.307-1.318,1.463h-0.63h-0.233h-1.427l0.939-5.321
						c0.178-1.016,0.149-1.77-0.086-2.257c-0.235-0.487-0.711-0.79-1.431-0.903c-0.248-0.05-0.533-0.09-0.862-0.115
						c-0.325-0.027-0.698-0.041-1.12-0.041h-5.127c-0.485,0-0.905,0.014-1.262,0.041c-0.35,0.025-0.655,0.065-0.908,0.115
						c-0.716,0.113-1.266,0.42-1.652,0.919c-0.388,0.497-0.668,1.244-0.844,2.242l-0.939,5.321h-1.61l-0.005,0.032h-1.107
						c-0.334-0.113-0.564-0.291-0.689-0.528c-0.124-0.239-0.149-0.562-0.079-0.966l1.266-7.174h-3.352l-1.26,7.143
						c-0.135,0.759-0.542,1.235-1.23,1.433c-0.07,0.011-0.21,0.018-0.431,0.029c-0.162,0.008-0.337,0.022-0.511,0.036l0.001-0.004
						h-0.614c-0.67-0.156-0.93-0.641-0.786-1.463l1.93-10.955h-3.337l-2.12,12.03c-0.174,0.975-0.165,1.709,0.027,2.201
						c0.187,0.492,0.596,0.817,1.219,0.973c0.544,0.124,1.291,0.187,2.242,0.187h0.749l0.806,0.032
						c0.594,0.02,1.079-0.018,1.454-0.117c0.379-0.099,0.691-0.242,0.941-0.429c0.246-0.185,0.445-0.402,0.594-0.646
						c0.149-0.244,0.291-0.501,0.427-0.77c0.032,0.447,0.169,0.799,0.411,1.059c0.242,0.26,0.535,0.454,0.878,0.582
						c0.339,0.131,0.707,0.21,1.102,0.242c0.342,0.028,0.655,0.033,0.954,0.028l-0.004,0.02h16.328h0.233h0.928
						c0.964,0,1.738-0.063,2.325-0.187c0.668-0.156,1.183-0.481,1.549-0.973c0.361-0.492,0.628-1.226,0.799-2.201l2.122-12.03
						h-3.318L1327.864,12.464L1327.864,12.464z M1319.714,20.681l-0.49,2.77c-0.034,0.199-0.074,0.359-0.12,0.483
						c-0.04,0.109-0.085,0.196-0.135,0.273c-0.01,0.018-0.019,0.036-0.021,0.052c-0.208,0.354-0.614,0.562-1.221,0.623h-4.314
						c-0.214-0.043-0.386-0.093-0.512-0.156c-0.129-0.061-0.217-0.149-0.271-0.255c-0.052-0.111-0.077-0.244-0.068-0.404
						c0.005-0.163,0.032-0.368,0.074-0.616l0.49-2.77c0.079-0.456,0.253-0.813,0.519-1.066c0.266-0.255,0.628-0.397,1.086-0.429
						h4.215c0.312,0.113,0.535,0.293,0.668,0.535C1319.75,19.967,1319.782,20.288,1319.714,20.681z"/>
				</g>
				<path fill="#E3A22A" d="M1334.742,27.855h-3.368l2.713-15.391h3.368L1334.742,27.855z"/>
			</g>
		</g>
		<g>
			<polygon fill="#ACE1F8" points="1211.462,16.274 1209.112,29.62 1254.557,29.62 1256.909,16.274 			"/>
		</g>
		<g>
			<path fill="#E3A22A" d="M1188.731,21.185l13.857-4.874c0.195-0.077,0.411-0.034,0.563,0.11c0.151,0.126,0.219,0.333,0.179,0.535
				l-2.912,14.361c-0.049,0.227-0.229,0.404-0.455,0.46c-0.078,0.008-0.152,0.005-0.23-0.009c-0.144-0.031-0.273-0.104-0.352-0.234
				l-3.004-4.409l-4.461,5.074c-0.228,0.263-0.545,0.427-0.884,0.449c-0.119,0.008-0.236,0.011-0.344-0.014
				c-0.22-0.043-0.426-0.148-0.593-0.295l-1.097-0.948c-0.527-0.467-0.571-1.289-0.101-1.819l4.429-5.054l-4.667-2.281
				c-0.21-0.099-0.334-0.319-0.315-0.548C1188.361,21.464,1188.514,21.268,1188.731,21.185z"/>
		</g>
	</g>
</g>
</svg>
