<?xml version="1.0" encoding="utf-8"?>
<!-- Generator: Adobe Illustrator 17.0.0, SVG Export Plug-In . SVG Version: 6.00 Build 0)  -->
<!DOCTYPE svg PUBLIC "-//W3C//DTD SVG 1.1//EN" "http://www.w3.org/Graphics/SVG/1.1/DTD/svg11.dtd">
<svg version="1.1" id="Layer_8_copy_4" xmlns="http://www.w3.org/2000/svg" xmlns:xlink="http://www.w3.org/1999/xlink" x="0px"
	 y="0px" width="420px" height="100px" viewBox="520 0 420 100" enable-background="new 520 0 420 100" xml:space="preserve">
<g>
	<g>
		<path fill="#FFFFFF" d="M618.829,36.472h14.423l7.608,23.766l2.972,11.962h0.327c0.357-5.736,0.623-13.766,1.779-20.322
			l2.717-15.407h13.439l-9.392,53.265h-14.421l-7.594-23.846l-2.985-11.883h-0.327c-0.415,6.066-0.626,13.768-1.782,20.324
			l-2.717,15.405h-13.439L618.829,36.472z"/>
		<polygon fill="#FFFFFF" points="668.985,36.472 683.079,36.472 673.686,89.738 659.593,89.738 		"/>
		<path fill="#FFFFFF" d="M710.615,36.472h-20.649l-9.392,53.265h14.093l2.978-16.879h6.556c11.145,0,22.299-5.655,24.597-18.685
			C731.168,40.734,722.088,36.472,710.615,36.472z M715.032,54.173c-0.838,4.754-3.951,7.54-9.522,7.54h-5.901l2.485-14.096h5.901
			C713.24,47.617,715.87,49.421,715.032,54.173z"/>
		<polygon fill="#FFFFFF" points="735.696,36.472 770.11,36.472 768.03,48.274 747.709,48.274 746.235,56.633 763.606,56.633 
			761.525,68.434 744.153,68.434 742.478,77.938 763.619,77.938 761.538,89.738 726.303,89.738 		"/>
		<path fill="#FFFFFF" d="M796.504,36.472h-20.159l-9.391,53.265h14.093l3.098-17.574l7.589,17.574h15.732l-9.036-19.64l5.023-1.011
			c5.655-2.786,9.978-7.782,11.323-15.403C817.115,40.407,807.976,36.472,796.504,36.472z M801.01,53.683
			c-0.811,4.587-4.194,7.048-9.766,7.048h-5.082l2.312-13.114h5.082C799.127,47.617,801.818,49.093,801.01,53.683z"/>
		<path fill="#FFFFFF" d="M586.684,36.458h-11.043l-0.864,0.172c-3.333,0-7.182,5.839-7.182,5.839l-4.496,7.031l-0.115,0.303h21.35
			c7.366,0,12.301,5.993,11.002,13.357c-1.298,7.365-8.348,13.359-15.714,13.359h-39.547c-3.156,0.681-6.506,5.76-6.506,5.76
			l-4.507,7.048l-0.308,0.534h48.515c14.723,0,28.816-11.978,31.412-26.701C611.278,48.439,601.408,36.458,586.684,36.458z"/>
		<path fill="#FFFFFF" d="M573.59,17.264c-14.723,0.001-28.813,11.979-31.411,26.703c-2.597,14.724,7.271,26.702,21.997,26.701
			l12.168,0.001l0.867-0.172c3.334,0,7.181-5.837,7.181-5.837l4.56-7.126l0.098-0.21h-22.523c-7.366,0-12.302-5.994-11.003-13.359
			c1.297-7.364,8.348-13.355,15.713-13.355h91.846l2.312-13.346C665.395,17.264,573.59,17.264,573.59,17.264z"/>
	</g>
	<g>
		<g>
			<path fill="#FFFFFF" d="M910.28,13.467c2.994,0,4.994,2.429,4.465,5.422l-2.729,15.486h11.208c2.996,0,4.998,2.429,4.47,5.422
				l-7.285,41.312c-0.528,2.998-3.384,5.422-6.382,5.422h-61.306c-2.996,0-4.996-2.424-4.468-5.422l2.343-13.292h-8.897
				c-2.996,0-4.996-2.424-4.468-5.422l7.671-43.506c0.528-2.993,3.384-5.422,6.38-5.422L910.28,13.467 M910.28,10h-58.996
				c-4.672,0-8.974,3.64-9.794,8.287l-7.671,43.506c-0.433,2.456,0.185,4.896,1.695,6.695c1.492,1.777,3.747,2.797,6.188,2.797
				h4.764l-1.626,9.222c-0.433,2.456,0.185,4.896,1.695,6.695c1.492,1.777,3.747,2.797,6.188,2.797h61.306
				c4.675,0,8.978-3.641,9.797-8.288l7.285-41.311c0.433-2.453-0.185-4.892-1.695-6.692c-1.493-1.779-3.749-2.8-6.189-2.8h-7.076
				l2.012-11.417c0.433-2.454-0.185-4.894-1.695-6.694C914.973,11.019,912.719,10,910.28,10L910.28,10z"/>
		</g>
		<g>
			<path fill="#FFFFFF" d="M911.506,43.016l1.348-7.639h10.371c1.133,0,2.115,0.427,2.767,1.203
				c0.669,0.797,0.924,1.879,0.719,3.045l-0.6,3.391H911.506z"/>
		</g>
		<g>
			<path fill="#FFFFFF" d="M845.353,22.106l0.536-3.043c0.447-2.534,2.868-4.596,5.396-4.596h58.996
				c1.131,0,2.112,0.427,2.762,1.202c0.67,0.797,0.925,1.879,0.719,3.047l-0.596,3.391H845.353z"/>
		</g>
		<g>
			<path fill="#FFFFFF" d="M855.09,67.818c-1.321-2.631-2.345-5.431-3.017-8.369l-1.476,8.369H855.09z"/>
			<path fill="#FFFFFF" d="M862.788,67.818c-3.135-4.806-4.976-10.531-4.976-16.685c0-6.184,1.856-11.937,5.02-16.757h-0.916
				c-2.993,0-5.849,2.429-6.377,5.422l-2.997,16.995c0.616,3.915,1.838,7.626,3.6,11.024L862.788,67.818L862.788,67.818z"/>
			<path fill="#FFFFFF" d="M912.016,34.376h-6.499c2.186,2.225,3.933,4.875,5.121,7.813L912.016,34.376z"/>
			<path fill="#FFFFFF" d="M905.684,51.133c0,8.041-5.543,14.792-13.003,16.685h8.017c2.994,0,5.849-2.424,6.377-5.422l3.236-18.349
				c-1.214-3.736-3.366-7.043-6.169-9.67h-11.729C900.008,36.173,905.684,42.995,905.684,51.133z"/>
		</g>
		<g>
			<g>
				<path fill="#FFFFFF" d="M867.704,79.185c-0.204,0-0.387-0.02-0.558-0.059c-0.498-0.094-1.003-0.343-1.426-0.713l-1.822-1.577
					c-1.301-1.157-1.416-3.149-0.268-4.451l6.521-7.44l-6.61-3.228c-0.715-0.351-1.148-1.113-1.079-1.899
					c0.056-0.741,0.556-1.409,1.274-1.689l23.135-8.138c0.19-0.075,0.423-0.119,0.659-0.119c0.478,0,0.937,0.183,1.293,0.515
					c0.487,0.404,0.734,1.111,0.604,1.81l-4.859,23.958c-0.161,0.752-0.748,1.353-1.497,1.539c-0.047,0.012-0.095,0.02-0.144,0.024
					c-0.078,0.008-0.156,0.012-0.234,0.012c-0.145,0-0.29-0.014-0.436-0.041c-0.552-0.117-0.989-0.417-1.254-0.847l-4.255-6.245
					l-6.584,7.491c-0.566,0.646-1.334,1.032-2.16,1.087C867.9,79.18,867.802,79.185,867.704,79.185z"/>
			</g>
			<g>
				<path fill="#FFFFFF" d="M862.921,62.98c-1.234-0.605-1.981-1.927-1.863-3.249c0.094-1.295,0.945-2.439,2.245-2.944l1.761-0.619
					c-0.351-1.625-0.548-3.306-0.548-5.035c0-6.522,2.628-12.436,6.873-16.757h-7.426c-3.277,4.774-5.203,10.543-5.203,16.757
					c0,6.182,1.904,11.926,5.15,16.685h1.853l2.118-2.417L862.921,62.98z"/>
				<path fill="#FFFFFF" d="M871.221,51.133c0-8.138,5.676-14.961,13.272-16.757h-11.729c-4.48,4.198-7.299,10.148-7.299,16.757
					c0,1.618,0.172,3.196,0.494,4.72l5.502-1.935C871.312,53.01,871.221,52.082,871.221,51.133z"/>
				<path fill="#FFFFFF" d="M888.453,34.849c-8.98,0-16.285,7.305-16.285,16.284c0,0.839,0.084,1.658,0.207,2.464l5.6-1.969
					c-0.008-0.167-0.05-0.325-0.05-0.494c0-5.805,4.723-10.528,10.529-10.528c5.804,0,10.527,4.723,10.527,10.528
					c0,5.633-4.457,10.207-10.023,10.477l-1.171,5.774c0.223,0.009,0.442,0.034,0.667,0.034c8.978,0,16.283-7.305,16.283-16.284
					S897.431,34.849,888.453,34.849z"/>
				<path fill="#FFFFFF" d="M888.453,47.306c2.145,0,3.824,1.681,3.824,3.828c0,1.388-0.75,2.595-1.858,3.267l-1.267,6.248
					c4.951-0.366,8.882-4.469,8.882-9.514c0-5.285-4.298-9.584-9.581-9.584c-5.285,0-9.583,4.299-9.583,9.584
					c0,0.059,0.016,0.114,0.018,0.173l6.351-2.233C885.919,48.013,887.102,47.306,888.453,47.306z"/>
			</g>
		</g>
	</g>
	<g>
		<g>
			<path fill="#FFFFFF" d="M743.463,17.235h3.368l-2.032,11.517c-0.144,0.819,0.124,1.307,0.806,1.463h7.944
				c0.727-0.167,1.16-0.655,1.303-1.463c0.341-1.93,0.675-3.849,1-5.759s0.657-3.829,0.998-5.759c0.632,0,1.002,0.016,1.12,0.047
				c0.203,0.043,0.397,0.086,0.585,0.131c0.183,0.05,0.354,0.129,0.512,0.242c0.156,0.115,0.298,0.275,0.42,0.483
				c0.124,0.208,0.221,0.488,0.293,0.84c0.246-0.404,0.494-0.725,0.738-0.955c0.248-0.237,0.494-0.411,0.743-0.531
				c0.246-0.12,0.499-0.194,0.754-0.226c0.253-0.032,0.512-0.047,0.779-0.047c2.334,0,4.641,0.002,6.924,0.007
				c2.285,0.007,4.594,0.009,6.928,0.009l-1.465,8.31c-0.09,0.51-0.203,0.948-0.341,1.316s-0.307,0.682-0.512,0.941
				c-0.208,0.26-0.451,0.463-0.731,0.607c-0.28,0.144-0.6,0.244-0.964,0.296c-0.242,0.05-0.54,0.09-0.892,0.117
				c-0.352,0.025-0.761,0.038-1.226,0.038h-12.328l-0.167,0.948c-0.174,0.987-0.447,1.727-0.817,2.226
				c-0.37,0.499-0.883,0.819-1.54,0.966c-0.628,0.113-1.402,0.169-2.318,0.169h-12.691L743.463,17.235z M758.727,25.872h10.917
				c0.3,0,0.564-0.018,0.799-0.054c0.233-0.036,0.436-0.102,0.605-0.194v0.015c0.551-0.3,0.892-0.826,1.023-1.571l0.679-3.86h-12.01
				c-0.363,0.113-0.65,0.291-0.86,0.528c-0.205,0.239-0.345,0.56-0.418,0.966L758.727,25.872z"/>
			<g>
				<polygon fill="#FFFFFF" points="789.569,13.111 786.217,13.111 785.776,15.6 789.131,15.6 				"/>
				<polygon fill="#FFFFFF" points="799.023,13.111 795.655,13.111 795.217,15.6 798.585,15.6 				"/>
				<path fill="#FFFFFF" d="M800.951,25.235c0.007-0.01,0.012-0.027,0.019-0.038c0.002-0.003,0.002-0.006,0.004-0.009
					L800.951,25.235z"/>
				<polygon fill="#FFFFFF" points="803.836,13.111 800.484,13.111 800.044,15.6 803.398,15.6 				"/>
				<path fill="#FFFFFF" d="M809.864,13.454l-1.932,10.955c-0.144,0.822-0.582,1.307-1.318,1.463h-0.63h-0.233h-1.427l0.939-5.321
					c0.178-1.016,0.149-1.77-0.086-2.257c-0.235-0.487-0.711-0.79-1.431-0.903c-0.248-0.05-0.533-0.09-0.862-0.115
					c-0.325-0.027-0.698-0.041-1.12-0.041h-5.127c-0.485,0-0.905,0.014-1.262,0.041c-0.35,0.025-0.655,0.065-0.908,0.115
					c-0.716,0.113-1.266,0.42-1.652,0.919c-0.388,0.497-0.668,1.244-0.844,2.242l-0.939,5.321h-1.61l-0.005,0.032h-1.107
					c-0.334-0.113-0.564-0.291-0.689-0.528c-0.124-0.239-0.149-0.562-0.079-0.966l1.266-7.174h-3.352l-1.26,7.143
					c-0.135,0.759-0.542,1.235-1.23,1.433c-0.07,0.011-0.21,0.018-0.431,0.029c-0.162,0.008-0.337,0.022-0.511,0.036l0.001-0.004
					h-0.614c-0.67-0.156-0.93-0.641-0.786-1.463l1.93-10.955h-3.337l-2.12,12.03c-0.174,0.975-0.165,1.709,0.027,2.201
					c0.187,0.492,0.596,0.817,1.219,0.973c0.544,0.124,1.291,0.187,2.242,0.187h0.749l0.806,0.032
					c0.594,0.02,1.079-0.018,1.454-0.117c0.379-0.099,0.691-0.242,0.941-0.429c0.246-0.185,0.445-0.402,0.594-0.646
					s0.291-0.501,0.427-0.77c0.032,0.447,0.169,0.799,0.411,1.059s0.535,0.454,0.878,0.582c0.339,0.131,0.707,0.21,1.102,0.242
					c0.342,0.028,0.655,0.033,0.954,0.028l-0.004,0.02h16.328h0.233h0.928c0.964,0,1.738-0.063,2.325-0.187
					c0.668-0.156,1.183-0.481,1.549-0.973c0.361-0.492,0.628-1.226,0.799-2.201l2.122-12.03h-3.318L809.864,13.454L809.864,13.454z
					 M801.714,21.671l-0.49,2.77c-0.034,0.199-0.074,0.359-0.12,0.483c-0.04,0.109-0.085,0.196-0.135,0.273
					c-0.01,0.018-0.019,0.036-0.021,0.052c-0.208,0.354-0.614,0.562-1.221,0.623h-4.314c-0.214-0.043-0.386-0.093-0.512-0.156
					c-0.129-0.061-0.217-0.149-0.271-0.255c-0.052-0.111-0.077-0.244-0.068-0.404c0.005-0.163,0.032-0.368,0.074-0.616l0.49-2.77
					c0.079-0.456,0.253-0.813,0.519-1.066c0.266-0.255,0.628-0.397,1.086-0.429h4.215c0.312,0.113,0.535,0.293,0.668,0.535
					C801.75,20.957,801.782,21.278,801.714,21.671z"/>
			</g>
			<path fill="#FFFFFF" d="M816.742,28.845h-3.368l2.713-15.391h3.368L816.742,28.845z"/>
		</g>
	</g>
	<g>
		<polygon fill="#FFFFFF" points="693.462,17.264 691.112,30.61 736.557,30.61 738.909,17.264 		"/>
	</g>
	<g>
		<path fill="#FFFFFF" d="M670.731,22.175l13.857-4.874c0.195-0.077,0.411-0.034,0.563,0.11c0.151,0.126,0.219,0.333,0.179,0.535
			l-2.912,14.361c-0.049,0.227-0.229,0.404-0.455,0.46c-0.078,0.008-0.152,0.005-0.23-0.009c-0.144-0.031-0.273-0.104-0.352-0.234
			l-3.004-4.409l-4.461,5.074c-0.228,0.263-0.545,0.427-0.884,0.449c-0.119,0.008-0.236,0.011-0.344-0.014
			c-0.22-0.043-0.426-0.148-0.593-0.295l-1.097-0.948c-0.527-0.467-0.571-1.289-0.101-1.819l4.429-5.054l-4.667-2.281
			c-0.21-0.099-0.334-0.319-0.315-0.548C670.361,22.454,670.514,22.258,670.731,22.175z"/>
	</g>
</g>
</svg>
