<?xml version="1.0" encoding="utf-8"?>
<!-- Generator: Adobe Illustrator 17.0.0, SVG Export Plug-In . SVG Version: 6.00 Build 0)  -->
<!DOCTYPE svg PUBLIC "-//W3C//DTD SVG 1.1//EN" "http://www.w3.org/Graphics/SVG/1.1/DTD/svg11.dtd">
<svg version="1.1" id="Layer_8_copy_4" xmlns="http://www.w3.org/2000/svg" xmlns:xlink="http://www.w3.org/1999/xlink" x="0px"
	 y="0px" width="420px" height="100px" viewBox="0 0 420 100" enable-background="new 0 0 420 100" xml:space="preserve">
<g>
	<g>
		<path fill="#FFFFFF" d="M413.246,30.495c-2.446-2.915-6.098-4.587-10.02-4.587h-1.117l0.978-5.549
			c0.69-3.913-0.326-7.84-2.792-10.779c-2.446-2.91-6.097-4.579-10.015-4.579h-58.996c-7.143,0-13.47,5.339-14.718,12.418
			l-7.671,43.506c-0.691,3.915,0.325,7.843,2.789,10.778c2.196,2.616,5.366,4.229,8.832,4.531l-0.601,3.406
			c-0.689,3.914,0.327,7.842,2.79,10.776C325.151,93.33,328.802,95,332.723,95h61.307c7.144,0,13.473-5.339,14.721-12.42
			l7.285-41.312C416.726,37.357,415.709,33.431,413.246,30.495z"/>
		<path fill="#FFFFFF" d="M299.455,8.455h-3.368c-0.5,0-0.98,0.09-1.439,0.229c-0.471-0.145-0.963-0.226-1.466-0.226
			c0,0-3.263-0.003-3.322-0.003c-1.018,0-1.971,0.324-2.775,0.865c-0.899-0.771-2.047-1.209-3.249-1.209h-3.352
			c-0.242,0-0.478,0.03-0.712,0.064c-0.247-0.038-0.497-0.064-0.75-0.064h-3.367c-1.135,0-2.184,0.392-3.032,1.042
			c-0.867-0.669-1.939-1.042-3.054-1.042h-3.353c-0.809,0-1.572,0.208-2.255,0.555c-0.453-0.133-0.925-0.209-1.407-0.209h-3.337
			c-2.301,0-4.269,1.575-4.827,3.774c-1.559-0.001-3.122-0.001-4.662-0.006c-2.287-0.005-4.597-0.007-6.935-0.007
			c-0.483,0-0.958,0.029-1.406,0.086c-0.477,0.061-0.944,0.167-1.398,0.317c-0.033-0.01-0.214-0.059-0.27-0.072
			c-0.215-0.052-0.436-0.101-0.667-0.15c-0.617-0.139-1.245-0.165-2.203-0.165c-1.354,0-2.601,0.543-3.51,1.438
			c-0.931-0.917-2.189-1.438-3.509-1.438h-3.368c-1.502,0-2.866,0.669-3.79,1.744c-0.949-1.086-2.318-1.715-3.763-1.715h-45.447
			c-1.743,0-3.294,0.908-4.192,2.3c-0.232-0.319-0.491-0.62-0.792-0.887c-1.018-0.913-2.323-1.414-3.692-1.414
			c-0.651,0-1.291,0.113-1.901,0.337c0,0-8.939,3.145-12.497,4.397c-0.058-1.075-0.46-2.114-1.166-2.953
			c-0.95-1.129-2.35-1.78-3.825-1.78H53.589C36.554,12.266,20.254,26.098,17.255,43.1c-1.531,8.679,0.5,16.882,5.716,23.099
			c1.774,2.114,3.841,3.89,6.134,5.321h-9.031c-0.354,0-0.708,0.038-1.054,0.112c-4.78,1.031-8.576,6.303-9.664,7.954L4.85,86.634
			c-0.041,0.063-0.081,0.129-0.119,0.195l-0.308,0.534c-0.893,1.547-0.892,3.452,0.001,4.999s2.543,2.499,4.33,2.499h48.515
			c11.028,0,21.741-5.799,28.743-14.496l-1.499,8.503c-0.257,1.455,0.144,2.95,1.094,4.082c0.95,1.132,2.352,1.786,3.83,1.786
			h13.439c2.426,0,4.502-1.742,4.924-4.132l1.964-11.135l3.753,11.784c0.661,2.074,2.587,3.482,4.764,3.482h14.421
			c1.323,0,2.53-0.53,3.433-1.388c0.925,0.886,2.162,1.389,3.458,1.389h14.093c1.322,0,2.529-0.53,3.432-1.387
			c0.925,0.885,2.161,1.387,3.456,1.387h14.093c2.426,0,4.502-1.742,4.924-4.131l2.249-12.748h2.361
			c8.091,0,15.1-2.462,20.314-6.773l-3.136,17.783c-0.257,1.455,0.144,2.95,1.094,4.082c0.95,1.132,2.352,1.786,3.83,1.786h35.235
			c0.991,0,1.915-0.302,2.701-0.809c0.801,0.519,1.74,0.809,2.715,0.809h14.093c2.427,0,4.503-1.742,4.924-4.132l0.201-1.138
			l0.973,2.252c0.791,1.832,2.595,3.018,4.59,3.018h15.731c1.704,0,3.291-0.868,4.21-2.303s1.045-3.239,0.332-4.787l-6.452-14.024
			c0.036-0.017,0.072-0.033,0.107-0.051c7.652-3.771,12.506-10.348,14.036-19.021c1.165-6.609,0.042-12.003-3.338-16.031
			c-1.768-2.106-4.099-3.74-6.968-4.905c0.117-0.021,0.24-0.039,0.353-0.062c0.032-0.007,0.065-0.014,0.098-0.021
			c0.37-0.086,0.719-0.211,1.064-0.343c0.744,0.423,1.591,0.657,2.466,0.657h3.368c2.427,0,4.503-1.742,4.924-4.132l2.713-15.391
			c0.257-1.456-0.144-2.95-1.094-4.082S300.933,8.455,299.455,8.455z"/>
	</g>
</g>
<g>
	<g>
		<path fill="#221E6E" d="M98.829,36.472h14.423l7.608,23.766l2.972,11.962h0.327c0.357-5.736,0.623-13.766,1.779-20.322
			l2.717-15.407h13.439l-9.392,53.265h-14.421l-7.594-23.846l-2.985-11.883h-0.327c-0.415,6.066-0.626,13.768-1.782,20.324
			l-2.717,15.405H89.437L98.829,36.472z"/>
		<polygon fill="#221E6E" points="148.985,36.472 163.079,36.472 153.686,89.738 139.593,89.738 		"/>
		<path fill="#221E6E" d="M190.615,36.472h-20.649l-9.392,53.265h14.093l2.978-16.879h6.556c11.145,0,22.299-5.655,24.597-18.685
			C211.168,40.734,202.088,36.472,190.615,36.472z M195.032,54.173c-0.838,4.754-3.951,7.54-9.522,7.54h-5.901l2.485-14.096h5.901
			C193.24,47.617,195.87,49.421,195.032,54.173z"/>
		<polygon fill="#221E6E" points="215.696,36.472 250.11,36.472 248.03,48.274 227.709,48.274 226.235,56.633 243.606,56.633 
			241.525,68.434 224.153,68.434 222.478,77.938 243.619,77.938 241.538,89.738 206.303,89.738 		"/>
		<path fill="#221E6E" d="M276.504,36.472h-20.159l-9.391,53.265h14.093l3.098-17.574l7.589,17.574h15.732l-9.036-19.64l5.023-1.011
			c5.655-2.786,9.978-7.782,11.323-15.403C297.115,40.407,287.976,36.472,276.504,36.472z M281.01,53.683
			c-0.811,4.587-4.194,7.048-9.766,7.048h-5.082l2.312-13.114h5.082C279.127,47.617,281.818,49.093,281.01,53.683z"/>
		<path fill="#221E6E" d="M66.684,36.458H55.641l-0.864,0.172c-3.333,0-7.182,5.839-7.182,5.839L43.099,49.5l-0.115,0.303h21.35
			c7.366,0,12.301,5.993,11.002,13.357c-1.298,7.365-8.348,13.359-15.714,13.359H20.075c-3.156,0.681-6.506,5.76-6.506,5.76
			l-4.507,7.048l-0.308,0.534h48.515c14.723,0,28.816-11.978,31.412-26.701C91.278,48.439,81.408,36.458,66.684,36.458z"/>
		<path fill="#221E6E" d="M53.59,17.264c-14.723,0.001-28.813,11.979-31.411,26.703C19.582,58.691,29.45,70.67,44.176,70.669
			l12.168,0.001l0.867-0.172c3.334,0,7.181-5.837,7.181-5.837l4.56-7.126l0.098-0.21H46.527c-7.366,0-12.302-5.994-11.003-13.359
			c1.297-7.364,8.348-13.355,15.713-13.355h91.846l2.312-13.346C145.395,17.264,53.59,17.264,53.59,17.264z"/>
	</g>
	<g>
		<g>
			<g>
				<path fill="#FFFFFF" d="M403.224,34.376h-11.208l2.729-15.486c0.528-2.993-1.472-5.422-4.465-5.422h-58.996
					c-2.996,0-5.851,2.429-6.38,5.422l-7.671,43.506c-0.528,2.998,1.472,5.422,4.468,5.422h8.897l-2.343,13.292
					c-0.528,2.998,1.472,5.422,4.467,5.422h61.306c2.998,0,5.854-2.424,6.382-5.422l7.285-41.312
					C408.223,36.806,406.22,34.376,403.224,34.376z"/>
			</g>
			<path fill="#221E6E" d="M390.28,13.467c2.994,0,4.994,2.429,4.465,5.422l-2.729,15.486h11.208c2.996,0,4.998,2.429,4.47,5.422
				l-7.285,41.312c-0.528,2.998-3.384,5.422-6.382,5.422h-61.306c-2.996,0-4.996-2.424-4.468-5.422l2.343-13.292h-8.897
				c-2.996,0-4.996-2.424-4.468-5.422l7.671-43.506c0.528-2.993,3.384-5.422,6.38-5.422L390.28,13.467 M390.28,10h-58.996
				c-4.672,0-8.974,3.64-9.794,8.287l-7.671,43.506c-0.433,2.456,0.185,4.896,1.695,6.695c1.492,1.777,3.747,2.797,6.188,2.797
				h4.764l-1.626,9.222c-0.433,2.456,0.185,4.896,1.695,6.695c1.492,1.777,3.747,2.797,6.188,2.797h61.306
				c4.675,0,8.978-3.641,9.797-8.288l7.285-41.311c0.433-2.453-0.185-4.892-1.695-6.692c-1.493-1.779-3.749-2.8-6.189-2.8h-7.076
				l2.012-11.417c0.433-2.454-0.185-4.894-1.695-6.694C394.973,11.019,392.719,10,390.28,10L390.28,10z"/>
		</g>
		<g>
			
				<linearGradient id="SVGID_1_" gradientUnits="userSpaceOnUse" x1="412.2829" y1="763.7418" x2="417.4841" y2="741.6367" gradientTransform="matrix(1 0 0 1 -16.72 -707.89)">
				<stop  offset="0" style="stop-color:#272579"/>
				<stop  offset="1" style="stop-color:#00AEED"/>
			</linearGradient>
			<path fill="url(#SVGID_1_)" d="M403.225,34.376h-11.21l-1.7,9.639h16.634l0.745-4.217
				C408.222,36.806,406.22,34.376,403.225,34.376z"/>
		</g>
		<g>
			
				<linearGradient id="SVGID_2_" gradientUnits="userSpaceOnUse" x1="374.5916" y1="737.3221" x2="378.6044" y2="715.9368" gradientTransform="matrix(1 0 0 1 -16.72 -707.89)">
				<stop  offset="0" style="stop-color:#272579"/>
				<stop  offset="1" style="stop-color:#00AEED"/>
			</linearGradient>
			<path fill="url(#SVGID_2_)" d="M390.28,13.467h-58.996c-2.996,0-5.851,2.429-6.38,5.422l-0.743,4.217h69.844l0.74-4.217
				C395.274,15.896,393.274,13.467,390.28,13.467z"/>
		</g>
		<g>
			<path fill="#00AEED" d="M335.09,67.818c-1.321-2.631-2.345-5.431-3.017-8.369l-1.476,8.369H335.09z"/>
			<path fill="#00AEED" d="M342.788,67.818c-3.135-4.806-4.976-10.531-4.976-16.685c0-6.184,1.856-11.937,5.02-16.757h-0.916
				c-2.993,0-5.849,2.429-6.377,5.422l-2.997,16.995c0.616,3.915,1.838,7.626,3.6,11.024L342.788,67.818L342.788,67.818z"/>
			<path fill="#00AEED" d="M392.016,34.376h-6.499c2.186,2.225,3.933,4.875,5.121,7.813L392.016,34.376z"/>
			<path fill="#00AEED" d="M385.684,51.133c0,8.041-5.543,14.792-13.003,16.685h8.017c2.994,0,5.849-2.424,6.377-5.422l3.236-18.349
				c-1.214-3.736-3.366-7.043-6.169-9.67h-11.729C380.008,36.173,385.684,42.995,385.684,51.133z"/>
		</g>
		<g>
			<g>
				<path fill="#E3A22A" d="M344.101,59.059l23.103-8.126c0.327-0.128,0.682-0.056,0.939,0.184c0.253,0.211,0.366,0.554,0.302,0.893
					l-4.856,23.944c-0.081,0.379-0.381,0.673-0.758,0.767c-0.129,0.013-0.257,0.008-0.386-0.016
					c-0.242-0.052-0.456-0.173-0.589-0.39l-5.005-7.349l-7.436,8.46c-0.384,0.438-0.912,0.712-1.474,0.749
					c-0.196,0.012-0.388,0.018-0.573-0.024c-0.368-0.07-0.709-0.246-0.989-0.491l-1.826-1.58c-0.876-0.78-0.953-2.149-0.172-3.034
					l7.386-8.427l-7.786-3.801c-0.343-0.168-0.555-0.535-0.522-0.913C343.487,59.526,343.742,59.199,344.101,59.059z"/>
			</g>
			<g>
				<path fill="none" d="M358.87,51.133c0-5.285,4.298-9.584,9.583-9.584c5.282,0,9.581,4.299,9.581,9.584
					c0,5.045-3.93,9.149-8.882,9.514l-0.195,0.962c5.566-0.269,10.023-4.844,10.023-10.477c0-5.805-4.723-10.528-10.527-10.528
					c-5.806,0-10.529,4.723-10.529,10.528c0,0.169,0.042,0.327,0.05,0.494l0.913-0.321C358.886,51.247,358.87,51.192,358.87,51.133z
					"/>
				<path fill="none" d="M367.532,48.462c0.815,0,1.597,0.302,2.208,0.851c0.883,0.769,1.294,1.966,1.067,3.176l-0.388,1.911
					c1.108-0.671,1.858-1.878,1.858-3.267c0-2.147-1.68-3.828-3.824-3.828c-1.351,0-2.534,0.708-3.215,1.767l1.092-0.384
					C366.716,48.538,367.12,48.462,367.532,48.462z"/>
				<path fill="#00AEED" d="M342.921,62.98c-1.234-0.605-1.981-1.927-1.863-3.249c0.094-1.295,0.945-2.439,2.245-2.944l1.761-0.619
					c-0.351-1.625-0.548-3.306-0.548-5.035c0-6.522,2.628-12.436,6.873-16.757h-7.426c-3.277,4.774-5.203,10.543-5.203,16.757
					c0,6.182,1.904,11.926,5.15,16.685h1.853l2.118-2.417L342.921,62.98z"/>
				<path fill="#00AEED" d="M351.221,51.133c0-8.138,5.676-14.961,13.272-16.757h-11.729c-4.48,4.198-7.299,10.148-7.299,16.757
					c0,1.618,0.172,3.196,0.494,4.72l5.502-1.935C351.312,53.01,351.221,52.082,351.221,51.133z"/>
				<path fill="#00AEED" d="M368.453,34.849c-8.98,0-16.285,7.305-16.285,16.284c0,0.839,0.084,1.658,0.207,2.464l5.6-1.969
					c-0.008-0.167-0.05-0.325-0.05-0.494c0-5.805,4.723-10.528,10.529-10.528c5.804,0,10.527,4.723,10.527,10.528
					c0,5.633-4.457,10.207-10.023,10.477l-1.171,5.774c0.223,0.009,0.442,0.034,0.667,0.034c8.978,0,16.283-7.305,16.283-16.284
					S377.431,34.849,368.453,34.849z"/>
				<path fill="#00AEED" d="M368.453,47.306c2.145,0,3.824,1.681,3.824,3.828c0,1.388-0.75,2.595-1.858,3.267l-1.267,6.248
					c4.951-0.366,8.882-4.469,8.882-9.514c0-5.285-4.298-9.584-9.581-9.584c-5.285,0-9.583,4.299-9.583,9.584
					c0,0.059,0.016,0.114,0.018,0.173l6.351-2.233C365.919,48.013,367.102,47.306,368.453,47.306z"/>
			</g>
		</g>
	</g>
	<g>
		<g>
			<path fill="#E3A22A" d="M226.463,17.235h3.368l-2.032,11.517c-0.144,0.819,0.124,1.307,0.806,1.463h4.944
				c0.727-0.167,1.16-0.655,1.303-1.463c0.341-1.93,0.675-3.849,1-5.759s0.657-3.829,0.998-5.759c0.632,0,1.002,0.016,1.12,0.047
				c0.203,0.043,0.397,0.086,0.585,0.131c0.183,0.05,0.354,0.129,0.512,0.242c0.156,0.115,0.298,0.275,0.42,0.483
				c0.124,0.208,0.221,0.488,0.293,0.84c0.246-0.404,0.494-0.725,0.738-0.955c0.248-0.237,0.494-0.411,0.743-0.531
				c0.246-0.12,0.499-0.194,0.754-0.226c0.253-0.032,0.512-0.047,0.779-0.047c2.334,0,4.641,0.002,6.924,0.007
				c2.285,0.007,4.594,0.009,6.928,0.009l-1.465,8.31c-0.09,0.51-0.203,0.948-0.341,1.316s-0.307,0.682-0.512,0.941
				c-0.208,0.26-0.451,0.463-0.731,0.607s-0.6,0.244-0.964,0.296c-0.242,0.05-0.54,0.09-0.892,0.117
				c-0.352,0.025-0.761,0.038-1.226,0.038h-12.328l-0.167,0.948c-0.174,0.987-0.447,1.727-0.817,2.226
				c-0.37,0.499-0.883,0.819-1.54,0.966c-0.628,0.113-1.402,0.169-2.318,0.169h-9.691L226.463,17.235z M238.727,25.872h10.917
				c0.3,0,0.564-0.018,0.799-0.054c0.233-0.036,0.436-0.102,0.605-0.194v0.015c0.551-0.3,0.892-0.826,1.023-1.571l0.679-3.86h-12.01
				c-0.363,0.113-0.65,0.291-0.86,0.528c-0.205,0.239-0.345,0.56-0.418,0.966L238.727,25.872z"/>
			<g>
				<polygon fill="#E3A22A" points="269.569,13.111 266.217,13.111 265.776,15.6 269.131,15.6 				"/>
				<polygon fill="#E3A22A" points="279.023,13.111 275.655,13.111 275.217,15.6 278.585,15.6 				"/>
				<path fill="#E3A22A" d="M280.951,25.235c0.007-0.01,0.012-0.027,0.019-0.038c0.002-0.003,0.002-0.006,0.004-0.009
					L280.951,25.235z"/>
				<polygon fill="#E3A22A" points="283.836,13.111 280.484,13.111 280.044,15.6 283.398,15.6 				"/>
				<path fill="#E3A22A" d="M289.864,13.454l-1.932,10.955c-0.144,0.822-0.582,1.307-1.318,1.463h-0.63h-0.233h-1.427l0.939-5.321
					c0.178-1.016,0.149-1.77-0.086-2.257c-0.235-0.487-0.711-0.79-1.431-0.903c-0.248-0.05-0.533-0.09-0.862-0.115
					c-0.325-0.027-0.698-0.041-1.12-0.041h-5.127c-0.485,0-0.905,0.014-1.262,0.041c-0.35,0.025-0.655,0.065-0.908,0.115
					c-0.716,0.113-1.266,0.42-1.652,0.919c-0.388,0.497-0.668,1.244-0.844,2.242l-0.939,5.321h-1.61l-0.005,0.032h-1.107
					c-0.334-0.113-0.564-0.291-0.689-0.528c-0.124-0.239-0.149-0.562-0.079-0.966l1.266-7.174h-3.352l-1.26,7.143
					c-0.135,0.759-0.542,1.235-1.23,1.433c-0.07,0.011-0.21,0.018-0.431,0.029c-0.162,0.008-0.337,0.022-0.511,0.036l0.001-0.004
					h-0.614c-0.67-0.156-0.93-0.641-0.786-1.463l1.93-10.955h-3.337l-2.12,12.03c-0.174,0.975-0.165,1.709,0.027,2.201
					c0.187,0.492,0.596,0.817,1.219,0.973c0.544,0.124,1.291,0.187,2.242,0.187h0.749l0.806,0.032
					c0.594,0.02,1.079-0.018,1.454-0.117c0.379-0.099,0.691-0.242,0.941-0.429c0.246-0.185,0.445-0.402,0.594-0.646
					s0.291-0.501,0.427-0.77c0.032,0.447,0.169,0.799,0.411,1.059s0.535,0.454,0.878,0.582c0.339,0.131,0.707,0.21,1.102,0.242
					c0.342,0.028,0.655,0.033,0.954,0.028l-0.004,0.02h16.328h0.233h0.928c0.964,0,1.738-0.063,2.325-0.187
					c0.668-0.156,1.183-0.481,1.549-0.973c0.361-0.492,0.628-1.226,0.799-2.201l2.122-12.03h-3.318L289.864,13.454L289.864,13.454z
					 M281.714,21.671l-0.49,2.77c-0.034,0.199-0.074,0.359-0.12,0.483c-0.04,0.109-0.085,0.196-0.135,0.273
					c-0.01,0.018-0.019,0.036-0.021,0.052c-0.208,0.354-0.614,0.562-1.221,0.623h-4.314c-0.214-0.043-0.386-0.093-0.512-0.156
					c-0.129-0.061-0.217-0.149-0.271-0.255c-0.052-0.111-0.077-0.244-0.068-0.404c0.005-0.163,0.032-0.368,0.074-0.616l0.49-2.77
					c0.079-0.456,0.253-0.813,0.519-1.066c0.266-0.255,0.628-0.397,1.086-0.429h4.215c0.312,0.113,0.535,0.293,0.668,0.535
					C281.75,20.957,281.782,21.278,281.714,21.671z"/>
			</g>
			<path fill="#E3A22A" d="M296.742,28.845h-3.368l2.713-15.391h3.368L296.742,28.845z"/>
		</g>
	</g>
	<g>
		<polygon fill="#ACE1F8" points="173.462,17.264 171.112,30.61 216.557,30.61 218.909,17.264 		"/>
	</g>
	<g>
		<path fill="#E3A22A" d="M150.731,22.175l13.857-4.874c0.195-0.077,0.411-0.034,0.563,0.11c0.151,0.126,0.219,0.333,0.179,0.535
			l-2.912,14.361c-0.049,0.227-0.229,0.404-0.455,0.46c-0.078,0.008-0.152,0.005-0.23-0.009c-0.144-0.031-0.273-0.104-0.352-0.234
			l-3.004-4.409l-4.461,5.074c-0.228,0.263-0.545,0.427-0.884,0.449c-0.119,0.008-0.236,0.011-0.344-0.014
			c-0.22-0.043-0.426-0.148-0.593-0.295l-1.097-0.948c-0.527-0.467-0.571-1.289-0.101-1.819l4.429-5.054l-4.667-2.281
			c-0.21-0.099-0.334-0.319-0.315-0.548C150.361,22.454,150.514,22.258,150.731,22.175z"/>
	</g>
</g>
</svg>
