<svg xmlns="http://www.w3.org/2000/svg" width="11.925" height="10.435" viewBox="0 0 11.925 10.435">
  <path id="Icon_awesome-sort-amount-up" data-name="Icon awesome-sort-amount-up" d="M7.08,11.194H5.59a.373.373,0,0,0-.373.373v.745a.373.373,0,0,0,.373.373H7.08a.373.373,0,0,0,.373-.373v-.745A.373.373,0,0,0,7.08,11.194ZM.372,5.231H1.49v7.081a.373.373,0,0,0,.373.373h.745a.373.373,0,0,0,.373-.373V5.231H4.1A.373.373,0,0,0,4.362,4.6L2.5,2.359a.373.373,0,0,0-.527,0L.109,4.6A.373.373,0,0,0,.372,5.231Zm9.689,0H5.59a.373.373,0,0,0-.373.373v.745a.373.373,0,0,0,.373.373h4.472a.373.373,0,0,0,.373-.373V5.6A.373.373,0,0,0,10.062,5.231ZM8.571,8.213H5.59a.373.373,0,0,0-.373.373v.745A.373.373,0,0,0,5.59,9.7H8.571a.373.373,0,0,0,.373-.373V8.585A.373.373,0,0,0,8.571,8.213ZM11.552,2.25H5.59a.373.373,0,0,0-.373.373v.745a.373.373,0,0,0,.373.373h5.963a.373.373,0,0,0,.373-.373V2.623A.373.373,0,0,0,11.552,2.25Z" transform="translate(0 -2.25)" fill="#282377"/>
</svg>
