<svg xmlns="http://www.w3.org/2000/svg" width="11.925" height="10.435" viewBox="0 0 11.925 10.435">
  <path id="Icon_awesome-sort-amount-down" data-name="Icon awesome-sort-amount-down" d="M7.081,11.194H5.59a.373.373,0,0,0-.373.373v.745a.373.373,0,0,0,.373.373H7.081a.373.373,0,0,0,.373-.373v-.745A.373.373,0,0,0,7.081,11.194ZM4.1,9.7H2.981V2.623a.373.373,0,0,0-.373-.373H1.863a.373.373,0,0,0-.373.373V9.7H.373a.373.373,0,0,0-.263.636l1.863,2.236a.373.373,0,0,0,.527,0l1.863-2.236A.373.373,0,0,0,4.1,9.7Zm5.963-4.472H5.59a.373.373,0,0,0-.373.373v.745a.373.373,0,0,0,.373.373h4.472a.373.373,0,0,0,.373-.373V5.6A.373.373,0,0,0,10.062,5.231ZM8.571,8.213H5.59a.373.373,0,0,0-.373.373v.745A.373.373,0,0,0,5.59,9.7H8.571a.373.373,0,0,0,.373-.373V8.585A.373.373,0,0,0,8.571,8.213ZM11.553,2.25H5.59a.373.373,0,0,0-.373.373v.745a.373.373,0,0,0,.373.373h5.963a.373.373,0,0,0,.373-.373V2.623A.373.373,0,0,0,11.553,2.25Z" transform="translate(0 -2.25)" fill="#282377"/>
</svg>
