<svg xmlns="http://www.w3.org/2000/svg" width="6.62" height="6.624" viewBox="0 0 6.62 6.624">
  <g id="Icon_ionic-ios-close-circle-outline" data-name="Icon ionic-ios-close-circle-outline" transform="translate(-12.359 -12.354)">
    <path id="Path_8413" data-name="Path 8413" d="M18.785,17.849l-2.177-2.177,2.177-2.177a.66.66,0,0,0-.934-.934l-2.177,2.177L13.5,12.561a.66.66,0,0,0-.934.934l2.177,2.177-2.177,2.177a.638.638,0,0,0,0,.934.656.656,0,0,0,.934,0l2.177-2.177,2.177,2.177a.663.663,0,0,0,.934,0A.656.656,0,0,0,18.785,17.849Z" transform="translate(0 0)"/>
  </g>
</svg>
