<svg xmlns="http://www.w3.org/2000/svg" width="13" height="13" viewBox="0 0 13 13">
  <path id="Icon_ionic-ios-settings" data-name="Icon ionic-ios-settings" d="M16.427,11A1.672,1.672,0,0,1,17.5,9.438a6.628,6.628,0,0,0-.8-1.933,1.7,1.7,0,0,1-.68.146A1.669,1.669,0,0,1,14.49,5.3a6.612,6.612,0,0,0-1.93-.8,1.672,1.672,0,0,1-3.121,0,6.632,6.632,0,0,0-1.933.8A1.669,1.669,0,0,1,5.979,7.651a1.64,1.64,0,0,1-.68-.146,6.775,6.775,0,0,0-.8,1.936,1.672,1.672,0,0,1,0,3.121,6.628,6.628,0,0,0,.8,1.933,1.67,1.67,0,0,1,2.2,2.2,6.67,6.67,0,0,0,1.933.8,1.669,1.669,0,0,1,3.115,0,6.632,6.632,0,0,0,1.933-.8,1.671,1.671,0,0,1,2.2-2.2,6.667,6.667,0,0,0,.8-1.933A1.68,1.68,0,0,1,16.427,11Zm-5.4,2.7a2.708,2.708,0,1,1,2.708-2.708A2.707,2.707,0,0,1,11.03,13.7Z" transform="translate(-4.5 -4.5)" fill="#707070"/>
</svg>
