<svg xmlns="http://www.w3.org/2000/svg" width="14.15" height="10.613" viewBox="0 0 14.15 10.613">
  <g id="engine" transform="translate(0 -64)">
    <g id="Group_566" data-name="Group 566" transform="translate(0 64)">
      <path id="Path_8394" data-name="Path 8394" d="M13.266,68.127a.885.885,0,0,0-.884.884V69.9h-.59V68.788a1.186,1.186,0,0,0-.345-.834l-.661-.661a1.186,1.186,0,0,0-.834-.345h-1.7V65.769h.884a.884.884,0,0,0,0-1.769H5.6a.884.884,0,0,0,0,1.769h.884v1.179H5.378a1.186,1.186,0,0,0-.834.345l-.834.834H3.243a.885.885,0,0,0-.884.884V69.9h-.59v-.884a.884.884,0,0,0-1.769,0v3.538a.884.884,0,0,0,1.769,0v-.884h.59v.884a.885.885,0,0,0,.884.884H3.71l.834.834a1.186,1.186,0,0,0,.834.345H9.362a1.186,1.186,0,0,0,.834-.345l1.251-1.251a1.186,1.186,0,0,0,.345-.834v-.518h.59v.884a.884.884,0,1,0,1.769,0V69.011A.885.885,0,0,0,13.266,68.127Z" transform="translate(0 -64)" fill="#282377"/>
    </g>
  </g>
</svg>
