<svg xmlns="http://www.w3.org/2000/svg" width="20.381" height="20.381" viewBox="0 0 20.381 20.381">
  <path id="Icon_awesome-user-circle" data-name="Icon awesome-user-circle" d="M10.191.562A10.191,10.191,0,1,0,20.381,10.753,10.189,10.189,0,0,0,10.191.562Zm0,3.945A3.616,3.616,0,1,1,6.575,8.123,3.616,3.616,0,0,1,10.191,4.507Zm0,14.135a7.874,7.874,0,0,1-6.02-2.8,4.581,4.581,0,0,1,4.048-2.457,1,1,0,0,1,.292.045,5.441,5.441,0,0,0,1.681.284,5.42,5.42,0,0,0,1.681-.284,1.006,1.006,0,0,1,.292-.045,4.581,4.581,0,0,1,4.048,2.457A7.874,7.874,0,0,1,10.191,18.643Z" transform="translate(0 -0.563)" fill="#212121"/>
</svg>
