<svg id="user-setting" xmlns="http://www.w3.org/2000/svg" width="19.927" height="19.928" viewBox="0 0 19.927 19.928">
  <path id="Path_11040" data-name="Path 11040" d="M16.179,7.269l-.871-.638a3.822,3.822,0,0,0,.022-.4c0-.13-.007-.262-.022-.4l.872-.639a1.1,1.1,0,0,0,.3-1.422l-.73-1.289a1.073,1.073,0,0,0-1.388-.452l-.98.45a4.5,4.5,0,0,0-.658-.389l-.108-1.1A1.079,1.079,0,0,0,11.543,0H10.082A1.081,1.081,0,0,0,9.005.983L8.9,2.083a4.431,4.431,0,0,0-.658.389l-.978-.45a1.069,1.069,0,0,0-1.388.451l-.732,1.29a1.1,1.1,0,0,0,.3,1.422l.871.638a3.822,3.822,0,0,0-.022.4c0,.13.007.262.022.4l-.872.639a1.1,1.1,0,0,0-.3,1.422l.73,1.289a1.073,1.073,0,0,0,1.388.452l.98-.45a4.5,4.5,0,0,0,.658.389l.108,1.1a1.079,1.079,0,0,0,1.075.981h1.461a1.081,1.081,0,0,0,1.076-.983l.108-1.1a4.431,4.431,0,0,0,.658-.389l.979.45a1.07,1.07,0,0,0,1.388-.45l.732-1.29A1.1,1.1,0,0,0,16.179,7.269ZM10.812,8.3a2.076,2.076,0,1,1,2.076-2.076A2.078,2.078,0,0,1,10.812,8.3Z" transform="translate(-0.848 0)" fill="#282377"/>
  <circle id="Ellipse_486" data-name="Ellipse 486" cx="2.5" cy="2.5" r="2.5" transform="translate(1.429 11.928)" fill="#282377"/>
  <path id="Path_11041" data-name="Path 11041" d="M5.19,20H2.283A2.285,2.285,0,0,0,0,22.283V22.7a.623.623,0,0,0,.623.623H6.85a.623.623,0,0,0,.623-.623v-.415A2.285,2.285,0,0,0,5.19,20Z" transform="translate(0 -3.394)" fill="#282377"/>
  <circle id="Ellipse_487" data-name="Ellipse 487" cx="2.5" cy="2.5" r="2.5" transform="translate(13.429 11.928)" fill="#282377"/>
  <path id="Path_11042" data-name="Path 11042" d="M20.19,20H17.283A2.285,2.285,0,0,0,15,22.283V22.7a.623.623,0,0,0,.623.623H21.85a.623.623,0,0,0,.623-.623v-.415A2.285,2.285,0,0,0,20.19,20Z" transform="translate(-2.545 -3.394)" fill="#282377"/>
</svg>
