<svg xmlns="http://www.w3.org/2000/svg" width="31.563" height="31.562" viewBox="0 0 31.563 31.562">
  <path id="Icon_awesome-user-circle" data-name="Icon awesome-user-circle" d="M15.781.563A15.781,15.781,0,1,0,31.563,16.344,15.779,15.779,0,0,0,15.781.563Zm0,6.109a5.6,5.6,0,1,1-5.6,5.6A5.6,5.6,0,0,1,15.781,6.671Zm0,21.89a12.194,12.194,0,0,1-9.322-4.34,7.1,7.1,0,0,1,6.268-3.805,1.557,1.557,0,0,1,.452.07,8.425,8.425,0,0,0,2.6.439,8.393,8.393,0,0,0,2.6-.439,1.557,1.557,0,0,1,.452-.07A7.1,7.1,0,0,1,25.1,24.222,12.194,12.194,0,0,1,15.781,28.561Z" transform="translate(0 -0.563)" fill="#282377"/>
</svg>
