<svg xmlns="http://www.w3.org/2000/svg" width="16" height="16.006" viewBox="0 0 16 16.006">
  <g id="zone1" transform="translate(15.964 15.97) rotate(180)">
    <g id="Group_820" data-name="Group 820" transform="translate(-0.036 -0.036)">
      <g id="Group_819" data-name="Group 819">
        <path id="Path_8516" data-name="Path 8516" d="M15.964,3.964a2,2,0,0,0-3.826-.81L10.431,2.87l-.166.988,1.716.288a2,2,0,0,0,1.235,1.672L12.729,9.49a2,2,0,0,0-1.763,1.976v.006L5.2,12.992a1.993,1.993,0,0,0-1.479-1L2.7,3.82A2.021,2.021,0,0,0,3.792,2.773l6.474,1.085.166-.988L3.948,1.788A2,2,0,1,0,1.707,3.939L2.729,12.11a2,2,0,1,0,2.735,1.857v-.006l5.764-1.519a1.994,1.994,0,1,0,2.485-2.823L14.2,5.946A2,2,0,0,0,15.964,3.964Zm-14-1a1,1,0,1,1,1-1A1,1,0,0,1,1.966,2.966Zm1.5,12a1,1,0,1,1,1-1A1,1,0,0,1,3.467,14.964Zm10.5-3.5a1,1,0,1,1-1-1A1,1,0,0,1,13.967,11.466Zm-1-7.5a1,1,0,1,1,1,1A1,1,0,0,1,12.967,3.964Z" transform="translate(0.036 0.036)" fill="#282377"/>
      </g>
    </g>
  </g>
</svg>
