<svg xmlns="http://www.w3.org/2000/svg" width="13" height="13.005" viewBox="0 0 13 13.005">
  <g id="zone1" transform="translate(12.965 12.969) rotate(180)">
    <g id="Group_820" data-name="Group 820" transform="translate(-0.036 -0.036)">
      <g id="Group_819" data-name="Group 819">
        <path id="Path_8516" data-name="Path 8516" d="M12.965,3.214a1.626,1.626,0,0,0-3.109-.658L8.469,2.325l-.135.8,1.394.234a1.627,1.627,0,0,0,1,1.359l-.4,2.984A1.622,1.622,0,0,0,8.9,9.31v.005L4.22,10.549a1.62,1.62,0,0,0-1.2-.813L2.188,3.1a1.642,1.642,0,0,0,.886-.851l5.26.881.135-.8L3.2,1.446A1.621,1.621,0,1,0,1.38,3.194l.831,6.639a1.625,1.625,0,1,0,2.222,1.509v-.005L9.117,10.1a1.62,1.62,0,1,0,2.019-2.294l.4-2.984A1.624,1.624,0,0,0,12.965,3.214ZM1.591,2.4A.813.813,0,1,1,2.4,1.591.812.812,0,0,1,1.591,2.4ZM2.81,12.152a.813.813,0,1,1,.813-.813A.812.812,0,0,1,2.81,12.152ZM11.342,9.31a.813.813,0,1,1-.813-.813A.812.812,0,0,1,11.342,9.31Zm-.813-6.1a.813.813,0,1,1,.813.813A.812.812,0,0,1,10.529,3.214Z" transform="translate(0.036 0.036)" fill="#212121"/>
      </g>
    </g>
  </g>
</svg>
