<svg xmlns="http://www.w3.org/2000/svg" width="15.997" height="16" viewBox="0 0 15.997 16">
  <g id="zone2" transform="translate(0 0.1)">
    <path id="Path_8517" data-name="Path 8517" d="M193.328,3.956a2.028,2.028,0,1,1,2.025-2.025A2.03,2.03,0,0,1,193.328,3.956Zm0-2.99a.965.965,0,1,0,.962.965A.966.966,0,0,0,193.328.965Z" transform="translate(-185.323)" fill="#282377"/>
    <path id="Path_8518" data-name="Path 8518" d="M193.328,386.256a2.028,2.028,0,1,1,2.028-2.028A2.03,2.03,0,0,1,193.328,386.256Zm0-2.99a.965.965,0,1,0,.965.965A.966.966,0,0,0,193.328,383.265Z" transform="translate(-185.323 -370.355)" fill="#282377"/>
    <path id="Path_8519" data-name="Path 8519" d="M384.228,189.856a2.028,2.028,0,1,1,2.028-2.025A2.03,2.03,0,0,1,384.228,189.856Zm0-2.99a.965.965,0,1,0,.965.965A.966.966,0,0,0,384.228,186.865Z" transform="translate(-370.258 -180.092)" fill="#282377"/>
    <path id="Path_8520" data-name="Path 8520" d="M2.028,187.256a2.028,2.028,0,1,1,2.028-2.028A2.03,2.03,0,0,1,2.028,187.256Zm0-2.99a.965.965,0,1,0,.965.965A.966.966,0,0,0,2.028,184.265Z" transform="translate(0 -177.573)" fill="#282377"/>
    <path id="Path_8521" data-name="Path 8521" d="M293.056,60.8c-.122.334-.228.675-.356,1.006a5.157,5.157,0,0,1,3.881,3.924,7.562,7.562,0,0,0,1.044-.194A6.212,6.212,0,0,0,293.056,60.8Z" transform="translate(-283.555 -58.997)" fill="#282377"/>
    <path id="Path_8522" data-name="Path 8522" d="M69.64,60.956c-.075-.353-.1-.7-.15-1.056a6.22,6.22,0,0,0-4.59,4.39,8.615,8.615,0,0,1,1.047.209A5.153,5.153,0,0,1,69.64,60.956Z" transform="translate(-62.872 -58.125)" fill="#282377"/>
    <path id="Path_8523" data-name="Path 8523" d="M62.547,286.4c-.35.056-.7.112-1.047.178a6.223,6.223,0,0,0,4.774,4.852,5.72,5.72,0,0,1,.3-1.022A5.157,5.157,0,0,1,62.547,286.4Z" transform="translate(-59.578 -277.548)" fill="#282377"/>
    <path id="Path_8524" data-name="Path 8524" d="M297.443,286.994c-.347-.066-.7-.125-1.044-.194a5.157,5.157,0,0,1-3.9,3.971,10.358,10.358,0,0,1,.284,1.025A6.23,6.23,0,0,0,297.443,286.994Z" transform="translate(-283.361 -277.936)" fill="#282377"/>
  </g>
</svg>
